<?xml version="1.0" encoding="UTF-8" standalone="no"?>
<svg width="140px" height="140px" viewBox="0 0 140 140" version="1.1" xmlns="http://www.w3.org/2000/svg" xmlns:xlink="http://www.w3.org/1999/xlink">
    <defs>
        <rect id="path-1" x="0" y="0" width="460" height="414"></rect>
        <filter x="-50%" y="-50%" width="200%" height="200%" filterUnits="objectBoundingBox" id="filter-2">
            <feOffset dx="0" dy="7" in="SourceAlpha" result="shadowOffsetOuter1"></feOffset>
            <feGaussianBlur stdDeviation="7" in="shadowOffsetOuter1" result="shadowBlurOuter1"></feGaussianBlur>
            <feColorMatrix values="0 0 0 0 0.715500389   0 0 0 0 0.771378086   0 0 0 0 0.830941752  0 0 0 0.5 0" type="matrix" in="shadowBlurOuter1"></feColorMatrix>
        </filter>
    </defs>
    <circle fill="#FFC900" cx="70" cy="70" r="70"></circle>
    <path d="M8.5,108.2 L8.5,81.9 C8.5,78.4 9.9,75.3 12.2,73 C14.5,70.7 17.6,69.3 21.1,69.3 L47.5,69.3 C51,69.3 54.1,70.7 56.4,73 C58.7,75.3 60.1,78.4 60.1,81.9 L60.1,108.2 L62.1,108.2 L62.1,81.9 C62.1,73.9 55.5,67.3 47.5,67.3 L21.1,67.3 C13,67.3 6.5,73.8 6.5,81.9 L6.5,108.2 L8.5,108.2 L8.5,108.2 L8.5,108.2 Z" fill="#000000"></path>
    <path d="M82.5,108.3 L82.5,82.1 C82.5,78.6 83.9,75.5 86.2,73.2 C88.5,70.9 91.6,69.5 95.1,69.5 L121.5,69.5 C125,69.5 128.1,70.9 130.4,73.2 C132.7,75.5 134.1,78.6 134.1,82.1 L134.1,108.4 L136.1,108.4 L136.1,82.1 C136.1,74.1 129.5,67.5 121.5,67.5 L95.1,67.5 C87,67.5 80.5,74 80.5,82.1 L80.5,108.4 L82.5,108.4 L82.5,108.3 L82.5,108.3 Z" fill="#000000"></path>
    <path d="M109,40.5 L109,41.5 C111.9,41.5 114.5,42.7 116.4,44.6 C118.3,46.5 119.5,49.1 119.5,52 C119.5,54.9 118.3,57.5 116.4,59.4 C114.5,61.3 111.9,62.5 109,62.5 C106.1,62.5 103.5,61.3 101.6,59.4 C99.7,57.5 98.5,54.9 98.5,52 C98.5,49.1 99.7,46.5 101.6,44.6 C103.5,42.7 106.1,41.5 109,41.5 L109,40.5 L109,39.5 C102.1,39.5 96.5,45.1 96.5,51.9 C96.5,58.8 102.1,64.3 109,64.3 C115.9,64.3 121.5,58.7 121.5,51.9 C121.5,45 115.9,39.5 109,39.5 L109,40.5 L109,40.5 Z" fill="#000000"></path>
    <path d="M45.8,109.3 L45.8,88.5 C45.8,82.6 51.9,77.8 59.4,77.8 L85.8,77.8 C93.3,77.8 99.4,82.6 99.4,88.5 L99.4,109.3" fill="#FFC900"></path>
    <path d="M46.8,108.3 L46.8,87.5 C46.8,84.9 48.1,82.5 50.4,80.7 C52.7,78.9 55.9,77.8 59.4,77.8 L85.8,77.8 C89.4,77.8 92.5,78.9 94.8,80.7 C97.1,82.5 98.4,84.9 98.4,87.5 L98.4,108.3 L100.4,108.3 L100.4,87.5 C100.4,84.2 98.7,81.2 96,79.1 C93.3,77 89.7,75.7 85.7,75.7 L59.5,75.7 C55.5,75.7 51.9,77 49.2,79.1 C46.5,81.2 44.8,84.2 44.8,87.5 L44.8,108.3 L46.8,108.3 L46.8,108.3 L46.8,108.3 Z" fill="#000000"></path>
    <path d="M34.3,39.5 L34.3,40.5 C37.2,40.5 39.8,41.7 41.7,43.6 C43.6,45.5 44.8,48.1 44.8,51 C44.8,53.9 43.6,56.5 41.7,58.4 C39.8,60.3 37.2,61.5 34.3,61.5 C31.4,61.5 28.8,60.3 26.9,58.4 C25,56.5 23.8,53.9 23.8,51 C23.8,48.1 25,45.5 26.9,43.6 C28.8,41.7 31.4,40.5 34.3,40.5 L34.3,39.5 L34.3,38.5 C27.4,38.5 21.8,44.1 21.8,50.9 C21.8,57.8 27.4,63.3 34.3,63.3 C41.2,63.3 46.8,57.7 46.8,50.9 C46.8,44 41.2,38.5 34.3,38.5 L34.3,39.5 L34.3,39.5 Z" fill="#000000"></path>
    <path d="M72.7,48 L72.7,49 C75.6,49 78.2,50.2 80.1,52.1 C82,54 83.2,56.6 83.2,59.5 C83.2,62.4 82,65 80.1,66.9 C78.2,68.8 75.6,70 72.7,70 C69.8,70 67.2,68.8 65.3,66.9 C63.4,65 62.2,62.4 62.2,59.5 C62.2,56.6 63.4,54 65.3,52.1 C67.2,50.2 69.8,49 72.7,49 L72.7,48 L72.7,47 C65.8,47 60.2,52.6 60.2,59.4 C60.2,66.3 65.8,71.8 72.7,71.8 C79.6,71.8 85.2,66.2 85.2,59.4 C85.2,52.5 79.6,47 72.7,47 L72.7,48 L72.7,48 Z" fill="#000000"></path>
</svg>
