<?xml version="1.0" encoding="UTF-8" standalone="no"?>
<svg width="140px" height="140px" viewBox="0 0 140 140" version="1.1" xmlns="http://www.w3.org/2000/svg" xmlns:xlink="http://www.w3.org/1999/xlink">
    <defs>
        <polygon id="path-1" points="0 0 461 0 461 414 1 414"></polygon>
        <filter x="-50%" y="-50%" width="200%" height="200%" filterUnits="objectBoundingBox" id="filter-2">
            <feOffset dx="0" dy="7" in="SourceAlpha" result="shadowOffsetOuter1"></feOffset>
            <feGaussianBlur stdDeviation="7" in="shadowOffsetOuter1" result="shadowBlurOuter1"></feGaussianBlur>
            <feColorMatrix values="0 0 0 0 0.715500389   0 0 0 0 0.771378086   0 0 0 0 0.830941752  0 0 0 0.5 0" type="matrix" in="shadowBlurOuter1"></feColorMatrix>
        </filter>
    </defs>
    <circle fill="#FFC900" cx="70" cy="70" r="70"></circle>
    <polygon fill="#000000" points="52.1279297 52.1599121 10 76.7666667 42.9294118 84 42.7897949 81.7099609 15.9294118 75.94 53.4371338 54.074707"></polygon>
    <polygon fill="#000000" points="94.6292725 81.4624023 88.5732218 124.302326 72.7782427 101.615222 71 102.754757 90.0376569 130 96.5461426 81.4624023"></polygon>
    <path d="M52.2967539,99.2046356 C57.1313752,102.436296 62.5965997,104 67.9567233,104 C76.8902628,104 85.7187017,99.7258687 91.1839258,91.8030888 C92.7604328,89.4054054 94.6522411,85.965251 96.438949,81.8996139 C99.2766615,75.6447876 102.114374,67.9305019 104.321484,60.1119691 C106.528594,52.2934363 108,44.4749035 108,38.011583 C108,34.988417 107.684699,32.2779923 106.948995,29.984556 C106.213292,27.6911197 104.952087,25.8146718 103.165379,24.5637066 C101.588872,23.5212355 99.6970634,23 97.5950541,23 C93.496136,23 88.7666151,24.7722008 83.6166924,27.3783784 C76.049459,31.4440154 67.7465224,37.6988417 60.5996909,43.953668 C57.0262751,47.0810811 53.7681607,50.2084942 51.0355487,53.1274131 C48.3029366,56.046332 46.0958269,58.6525097 44.7295209,60.7374517 C41.4714065,65.5328185 40,70.8494208 40,76.1660232 C40,85.027027 44.309119,93.7837838 52.2967543,99.2046332 L53.0324575,98.4749035 L53.6630603,97.6409266 C46.3060278,92.7413127 42.3122102,84.6100386 42.3122102,76.3745174 C42.3122102,71.4749035 43.7836167,66.4710425 46.7264297,62.0926641 C48.5131376,59.4864865 51.6661515,55.8378378 55.6599691,51.8764479 C61.6506955,45.9343629 69.5332303,39.2625483 77.2055641,34.0501931 C81.0942813,31.4440154 84.877898,29.2548263 88.4513138,27.6911197 C91.9196291,26.1274131 95.1777434,25.2934363 97.805255,25.2934363 C99.5919629,25.2934363 100.958269,25.7104247 102.114374,26.4401544 C103.48068,27.3783784 104.426584,28.7335907 105.162287,30.8185328 C105.79289,32.7992278 106.108192,35.3011583 106.108192,38.1158301 C106.108192,46.3513514 103.48068,57.2972973 100.117465,67.3050193 C98.4358578,72.3088803 96.5440495,77.1042471 94.6522411,81.1698842 C92.7604328,85.2355212 90.9737249,88.5714286 89.5023184,90.7606178 C84.5625966,98.0579151 76.3647604,102.019305 68.0618238,102.019305 C63.122102,102.019305 58.0772798,100.559846 53.6630603,97.6409266 L53.0324575,98.4749035 L52.2967539,99.2046356 Z" fill="#000000"></path>
    <path d="M51.9931271,103.036649 C53.6975945,104.188482 54.6563574,106.073298 54.6563574,107.958115 C54.6563574,109.109948 54.3367698,110.26178 53.5910653,111.308901 C53.3780069,111.623037 52.8453608,112.356021 52.0996564,113.298429 C49.4364261,116.649215 44.2164948,122.827225 39.1030928,128.272251 C36.5463918,130.994764 34.0962199,133.507853 31.9656357,135.287958 C30.9003436,136.230366 30.04811,136.858639 29.3024055,137.382199 C28.9828179,137.591623 28.556701,137.801047 28.3436426,137.905759 C28.1305842,138.010471 27.9175258,138.010471 27.9175258,138.010471 L27.9175258,138.324607 L28.1305842,138.115183 L28.024055,138.115183 L28.024055,138.429319 L28.2371134,138.219895 L28.024055,138.534031 L28.3436426,138.324607 L28.2371134,138.219895 L28.024055,138.534031 L28.3436426,138.324607 L28.2371134,138.429319 L28.3436426,138.324607 L28.2371134,138.429319 L28.3436426,138.324607 L28.3436426,137.905759 C28.3436426,137.382199 28.556701,136.335079 28.8762887,135.183246 C30.1546392,130.890052 33.4570447,123.874346 36.7594502,117.696335 C38.3573883,114.554974 39.9553265,111.727749 41.233677,109.424084 C41.8728522,108.272251 42.4054983,107.329843 42.9381443,106.492147 C43.3642612,105.759162 43.790378,105.13089 43.8969072,104.816754 C45.0687285,103.141361 46.9862543,102.198953 48.9037801,102.198953 C50.0756014,102.198953 50.9278357,102.303665 51.9931278,103.036649 L52.6323024,102.198953 L53.2714777,101.361257 C51.8865979,100.418848 50.2886598,100 48.6907216,100 C46.0274914,100 43.4707904,101.256545 41.8728522,103.560209 C41.5532646,103.979058 41.1271478,104.712042 40.5945017,105.65445 C38.5704467,109.109948 34.9484536,115.706806 31.8591065,122.094241 C30.2611684,125.340314 28.8762887,128.481675 27.8109966,131.204188 C27.2783505,132.565445 26.8522337,133.82199 26.532646,134.86911 C26.2130584,136.020942 26,136.963351 26,137.696335 C26,138.115183 26,138.429319 26.2130584,138.743455 C26.3195876,139.057592 26.532646,139.47644 26.9587629,139.685864 C27.2783505,139.895288 27.7044674,140 28.024055,140 C28.556701,140 28.9828179,139.895288 29.5154639,139.581152 C30.3676976,139.162304 31.3264605,138.534031 32.4982818,137.591623 C36.3333333,134.554974 41.5532646,128.900524 46.2405498,123.664921 C48.5841924,121.04712 50.7147766,118.534031 52.3127148,116.544503 C53.1649485,115.497382 53.9106529,114.659686 54.443299,113.926702 C54.975945,113.193717 55.4020619,112.670157 55.6151203,112.356021 C56.5738832,110.994764 57,109.424084 57,107.853403 C57,105.235602 55.6151194,102.931937 53.2714767,101.361257 L52.6323024,102.198953 L51.9931271,103.036649 Z" fill="#000000"></path>
    <path d="M87.5263158,49.7368421 L86.8947368,50.5789474 C89.4210526,52.2631579 90.7894737,55.1052632 90.7894737,57.9473684 C90.7894737,59.6315789 90.2631579,61.4210526 89.3157895,62.8947368 C87.6315789,65.4210526 84.7894737,66.7894737 81.9473684,66.7894737 C80.2631579,66.7894737 78.4736842,66.2631579 77,65.3157895 C74.4736842,63.6315789 73.1052632,60.7894737 73.1052632,57.9473684 C73.1052632,56.2631579 73.6315789,54.4736842 74.5789474,53 C76.2631579,50.4736842 79.1052632,49.1052632 81.9473684,49.1052632 C83.6315789,49.1052632 85.4210526,49.6315789 86.8947368,50.5789474 L87.5263158,49.7368421 L88.1578947,48.8947368 C86.2631579,47.6315789 84.1578947,47 82.0526316,47 C78.4736842,47 75,48.6842105 72.8947368,51.8421053 C71.6315789,53.7368421 71,55.8421053 71,57.9473684 C71,61.5263158 72.6842105,65 75.8421053,67.1052632 C77.7368421,68.3684211 79.8421053,69 81.9473684,69 C85.5263158,69 89,67.3157895 91.1052632,64.1578947 C92.3684211,62.2631579 93,60.1578947 93,58.0526316 C93,54.4736842 91.3157895,51 88.1578947,48.8947368 L87.5263158,49.7368421 L87.5263158,49.7368421 Z" fill="#000000"></path>
</svg>
