<?xml version="1.0" encoding="UTF-8" standalone="no"?>
<svg width="24px" height="24px" viewBox="0 0 24 24" version="1.1" xmlns="http://www.w3.org/2000/svg" xmlns:xlink="http://www.w3.org/1999/xlink">
    <!-- Generator: Sketch 39.1 (31720) - http://www.bohemiancoding.com/sketch -->
    <title>icon-groups</title>
    <desc>Created with Sketch.</desc>
    <defs></defs>
    <g id="Page-1" stroke="none" stroke-width="1" fill="none" fill-rule="evenodd">
        <g id="icon-groups" fill="#000000">
            <g transform="translate(4.000000, 4.000000)" id="Combined-Shape">
                <path d="M3.2,13.6 C4.9673112,13.6 6.4,12.1673112 6.4,10.4 C6.4,8.6326888 4.9673112,7.2 3.2,7.2 C1.4326888,7.2 0,8.6326888 0,10.4 C0,12.1673112 1.4326888,13.6 3.2,13.6 Z M10.8,16 C11.9045695,16 12.8,15.1045695 12.8,14 C12.8,12.8954305 11.9045695,12 10.8,12 C9.6954305,12 8.8,12.8954305 8.8,14 C8.8,15.1045695 9.6954305,16 10.8,16 Z M11.2,9.6 C13.8509668,9.6 16,7.4509668 16,4.8 C16,2.1490332 13.8509668,0 11.2,0 C8.5490332,0 6.4,2.1490332 6.4,4.8 C6.4,7.4509668 8.5490332,9.6 11.2,9.6 Z"></path>
            </g>
        </g>
    </g>
</svg>