<?xml version="1.0" encoding="UTF-8" standalone="no"?>
<svg width="50px" height="50px" viewBox="0 0 50 50" version="1.1" xmlns="http://www.w3.org/2000/svg" xmlns:xlink="http://www.w3.org/1999/xlink">
    <!-- Generator: Sketch 39.1 (31720) - http://www.bohemiancoding.com/sketch -->
    <title>icon-yellow-person-mail-invite</title>
    <desc>Created with Sketch.</desc>
    <defs></defs>
    <g id="Page-1" stroke="none" stroke-width="1" fill="none" fill-rule="evenodd">
        <g id="icon-yellow-person-mail-invite" fill="#FFC900">
            <g transform="translate(2.000000, 9.000000)" id="Shape">
                <path d="M40.25,9.82456143 L40.25,7.90570172 L34.5,11.7434211 L28.75,7.90570172 L28.75,9.82456143 L34.5,13.6622807 L40.25,9.82456143 L40.25,9.82456143 L40.25,9.82456143 L40.25,9.82456143 Z M42.1666666,0.230263158 L3.83333334,0.230263158 C1.725,0.230263158 0,1.95723684 0,4.06798249 L0,30.9320175 C0,33.0427632 1.725,34.7697368 3.83333334,34.7697368 L42.1666666,34.7697368 C44.275,34.7697368 45.9808334,33.0427632 45.9808334,30.9320175 L46,4.06798249 C46,1.95723684 44.275,0.230263158 42.1666666,0.230263158 L42.1666666,0.230263158 L42.1666666,0.230263158 L42.1666666,0.230263158 Z M15.3333334,5.98684211 C18.515,5.98684211 21.0833334,8.55811407 21.0833334,11.7434211 C21.0833334,14.928728 18.515,17.5 15.3333334,17.5 C12.1516666,17.5 9.58333336,14.928728 9.58333336,11.7434211 C9.58333336,8.55811407 12.1516666,5.98684211 15.3333334,5.98684211 L15.3333334,5.98684211 L15.3333334,5.98684211 L15.3333334,5.98684211 Z M26.8333334,29.0131579 L3.83333334,29.0131579 L3.83333334,27.0942983 C3.83333334,23.2565789 11.5,21.1458333 15.3333334,21.1458333 C19.1666666,21.1458333 26.8333334,23.2565789 26.8333334,27.0942983 L26.8333334,29.0131579 L26.8333334,29.0131579 L26.8333334,29.0131579 L26.8333334,29.0131579 Z M42.1666666,17.5 L26.8333334,17.5 L26.8333334,5.98684211 L42.1666666,5.98684211 L42.1666666,17.5 L42.1666666,17.5 L42.1666666,17.5 L42.1666666,17.5 Z"></path>
            </g>
        </g>
    </g>
</svg>