<?xml version="1.0" encoding="UTF-8" standalone="no"?>
<svg width="50px" height="50px" viewBox="0 0 50 50" version="1.1" xmlns="http://www.w3.org/2000/svg" xmlns:xlink="http://www.w3.org/1999/xlink">
    <!-- Generator: Sketch 39.1 (31720) - http://www.bohemiancoding.com/sketch -->
    <title>icon-blue-lightblub</title>
    <desc>Created with Sketch.</desc>
    <defs></defs>
    <g id="Page-1" stroke="none" stroke-width="1" fill="none" fill-rule="evenodd">
        <g id="icon-blue-lightblub" fill="#00B5FF">
            <g transform="translate(10.000000, 4.000000)" id="Shape">
                <path d="M8.75,39.75 C8.75,40.8958333 9.6875,41.8333333 10.8333333,41.8333333 L19.1666667,41.8333333 C20.3125,41.8333333 21.25,40.8958333 21.25,39.75 L21.25,37.6666667 L8.75,37.6666667 L8.75,39.75 L8.75,39.75 L8.75,39.75 L8.75,39.75 Z M15,0.16666667 C6.9583333,0.16666667 0.4166667,6.7083333 0.4166667,14.75 C0.4166667,19.7083333 2.8958333,24.0625 6.6666667,26.7083333 L6.6666667,31.4166667 C6.6666667,32.5625 7.6041667,33.5 8.75,33.5 L21.25,33.5 C22.3958333,33.5 23.3333333,32.5625 23.3333333,31.4166667 L23.3333333,26.7083333 C27.1041667,24.0625 29.5833333,19.7083333 29.5833333,14.75 C29.5833333,6.7083333 23.0416667,0.16666667 15,0.16666667 L15,0.16666667 L15,0.16666667 L15,0.16666667 Z M20.9375,23.2916667 L19.1666667,24.5416667 L19.1666667,29.3333333 L10.8333333,29.3333333 L10.8333333,24.5416667 L9.0625,23.2916667 C6.25,21.3333333 4.5833333,18.1458333 4.5833333,14.75 C4.5833333,9 9.25,4.33333333 15,4.33333333 C20.75,4.33333333 25.4166667,9 25.4166667,14.75 C25.4166667,18.1458333 23.75,21.3333333 20.9375,23.2916667 L20.9375,23.2916667 L20.9375,23.2916667 L20.9375,23.2916667 Z"></path>
            </g>
        </g>
    </g>
</svg>