<?xml version="1.0" encoding="UTF-8" standalone="no"?>
<svg width="22px" height="22px" viewBox="0 0 22 22" version="1.1" xmlns="http://www.w3.org/2000/svg" xmlns:xlink="http://www.w3.org/1999/xlink">
    <!-- Generator: Sketch 39.1 (31720) - http://www.bohemiancoding.com/sketch -->
    <title>ic_calendar_sm</title>
    <desc>Created with Sketch.</desc>
    <defs></defs>
    <g id="Symbols" stroke="none" stroke-width="1" fill="none" fill-rule="evenodd">
        <g id="ic_calendar_sm">
            <rect id="Rectangle-13" fill="#F84B4B" x="0" y="0" width="22.0988022" height="4.03846154"></rect>
            <rect id="Rectangle-14" fill="#FFBEBE" x="0" y="3.86842105" width="22.0988022" height="18.1315789"></rect>
            <path d="M5.48199837,14.393247 L7.858035,12.041247 C7.92715641,11.9705098 7.9991568,11.8953526 8.07403833,11.8157733 C8.14891986,11.7361939 8.21660022,11.6521948 8.27708146,11.5637733 C8.33756269,11.4753518 8.38796297,11.3825106 8.42828379,11.285247 C8.46860461,11.1879833 8.48876472,11.0863001 8.48876472,10.9801943 C8.48876472,10.8505095 8.46428459,10.7355633 8.41532359,10.6353522 C8.36636259,10.5351412 8.30156224,10.4496684 8.22092059,10.3789312 C8.14027895,10.308194 8.04667844,10.2536682 7.94011626,10.2153522 C7.83355409,10.1770362 7.71979347,10.1578785 7.598831,10.1578785 C7.33962571,10.1578785 7.12650455,10.2345094 6.95946114,10.3877733 C6.79241773,10.5410372 6.69161719,10.7473509 6.65705648,11.0067206 L5.5683997,10.9182996 C5.59144017,10.629456 5.65912053,10.3745112 5.77144283,10.1534575 C5.88376512,9.93240375 6.02920591,9.74819507 6.20776955,9.60082591 C6.3863332,9.45345675 6.59369432,9.34145787 6.82985915,9.26482591 C7.06602397,9.18819395 7.32234536,9.14987854 7.598831,9.14987854 C7.87531665,9.14987854 8.13307804,9.18672028 8.37212292,9.26040486 C8.6111678,9.33408944 8.81996894,9.44314098 8.99853258,9.58756275 C9.17709623,9.73198453 9.31821699,9.91619321 9.42189911,10.1401943 C9.52558123,10.3641955 9.57742151,10.6265086 9.57742151,10.9271417 C9.57742151,11.322091 9.48958103,11.6625087 9.31389744,11.9484049 C9.13821386,12.234301 8.91213263,12.5069299 8.63564699,12.7662996 L6.74345781,14.561247 L9.57742151,14.561247 L9.57742151,15.5161943 L5.48199837,15.5161943 L5.48199837,14.393247 Z M11.9262086,14.393247 L14.3022452,12.041247 C14.3713666,11.9705098 14.443367,11.8953526 14.5182486,11.8157733 C14.5931301,11.7361939 14.6608105,11.6521948 14.7212917,11.5637733 C14.7817729,11.4753518 14.8321732,11.3825106 14.872494,11.285247 C14.9128148,11.1879833 14.9329749,11.0863001 14.9329749,10.9801943 C14.9329749,10.8505095 14.9084948,10.7355633 14.8595338,10.6353522 C14.8105728,10.5351412 14.7457725,10.4496684 14.6651308,10.3789312 C14.5844892,10.308194 14.4908887,10.2536682 14.3843265,10.2153522 C14.2777643,10.1770362 14.1640037,10.1578785 14.0430412,10.1578785 C13.7838359,10.1578785 13.5707148,10.2345094 13.4036714,10.3877733 C13.236628,10.5410372 13.1358274,10.7473509 13.1012667,11.0067206 L12.0126099,10.9182996 C12.0356504,10.629456 12.1033308,10.3745112 12.2156531,10.1534575 C12.3279753,9.93240375 12.4734161,9.74819507 12.6519798,9.60082591 C12.8305434,9.45345675 13.0379046,9.34145787 13.2740694,9.26482591 C13.5102342,9.18819395 13.7665556,9.14987854 14.0430412,9.14987854 C14.3195269,9.14987854 14.5772883,9.18672028 14.8163332,9.26040486 C15.055378,9.33408944 15.2641792,9.44314098 15.4427428,9.58756275 C15.6213065,9.73198453 15.7624272,9.91619321 15.8661093,10.1401943 C15.9697915,10.3641955 16.0216317,10.6265086 16.0216317,10.9271417 C16.0216317,11.322091 15.9337913,11.6625087 15.7581077,11.9484049 C15.5824241,12.234301 15.3563429,12.5069299 15.0798572,12.7662996 L13.187668,14.561247 L16.0216317,14.561247 L16.0216317,15.5161943 L11.9262086,15.5161943 L11.9262086,14.393247 Z" id="22" fill="#FFFFFF"></path>
        </g>
    </g>
</svg>