<?xml version="1.0" encoding="UTF-8" standalone="no"?>
<svg width="24px" height="24px" viewBox="0 0 24 24" version="1.1" xmlns="http://www.w3.org/2000/svg" xmlns:xlink="http://www.w3.org/1999/xlink">
    <!-- Generator: Sketch 39.1 (31720) - http://www.bohemiancoding.com/sketch -->
    <title>icon-circle-question</title>
    <desc>Created with Sketch.</desc>
    <defs></defs>
    <g id="Page-1" stroke="none" stroke-width="1" fill="none" fill-rule="evenodd">
        <g id="icon-circle-question" fill="#000000">
            <g transform="translate(8.000000, 5.000000)" id="Combined-Shape">
                <path d="M7.07,6.25 L6.17,7.17 C5.45,7.9 5,8.5 5,10 L3,10 L3,9.5 C3,8.4 3.45,7.4 4.17,6.67 L5.41,5.41 C5.78,5.05 6,4.55 6,4 C6,2.9 5.1,2 4,2 C2.9,2 2,2.9 2,4 L0,4 C0,1.79 1.79,0 4,0 C6.21,0 8,1.79 8,4 C8,4.88 7.64,5.68 7.07,6.25 Z M5,14 L3,14 L3,12 L5,12 L5,14 Z"></path>
            </g>
        </g>
    </g>
</svg>