<svg xmlns="http://www.w3.org/2000/svg" width="670" height="70" viewBox="0 0 670 70" xmlns:xlink="http://www.w3.org/1999/xlink">
  <defs>
    <linearGradient id="a" x1="5.06%" x2="94.94%" y1="28.081%" y2="71.919%">
      <stop stop-color="#F84B4B" offset="0%"/>
      <stop stop-color="#55C8FC" offset="100%"/>
    </linearGradient>
    <polygon id="b" points="24.772 50 .022 50 .022 .192 24.772 .192 49.521 .192 49.521 50 24.772 50"/>
  </defs>
  <g fill="none" fill-rule="evenodd" transform="translate(-114 -161)">
    <g fill="url(#a)">
      <path d="M88.2667387,204.930262 C163.006014,226.336721 242.558945,296.764723 282.041718,335.069629 L314.261808,301.550963 L351.180183,263.14711 L412.17703,199.691886 C337.438977,178.286613 257.88242,107.857469 218.399646,69.552562 L88.2667387,204.930262" style="mix-blend-mode:lighten" opacity=".601" transform="rotate(79 250.222 202.311)"/>
      <path d="M218.502024,60.4936293 L88.3691167,195.871329 C163.108392,217.277788 242.661323,287.70579 282.144096,326.010697 L314.364186,292.49203 L351.282561,254.088177 L412.279407,190.632953 C337.541354,169.227681 257.984798,98.7985361 218.502024,60.4936293 L218.502024,60.4936293 L218.502024,60.4936293" style="mix-blend-mode:lighten" opacity=".603" transform="rotate(28 250.324 193.252)"/>
      <path d="M171.670481,118.480676 L41.5375735,253.858377 C116.276849,275.264835 195.829779,345.692837 235.312553,383.997744 L267.532642,350.479077 L304.451018,312.075224 L365.447864,248.620001 C290.709811,227.214728 211.153255,156.785583 171.670481,118.480676 L171.670481,118.480676 L171.670481,118.480676" style="mix-blend-mode:lighten" opacity=".603" transform="rotate(53 203.493 251.24)"/>
      <path d="M249.803743,155.745997 L119.670835,291.123697 C194.410111,312.530156 273.963041,382.958158 313.445815,421.263064 L345.665904,387.744397 L382.58428,349.340545 L443.581126,285.885321 C368.843073,264.480048 289.286517,194.050904 249.803743,155.745997 L249.803743,155.745997 L249.803743,155.745997" style="mix-blend-mode:lighten" opacity=".603" transform="rotate(124 281.626 288.505)"/>
      <path d="M487.266739,214.930262 C562.006014,236.336721 641.558945,306.764723 681.041718,345.069629 L713.261808,311.550963 L750.180183,273.14711 L811.17703,209.691886 C736.438977,188.286613 656.88242,117.857469 617.399646,79.552562 L487.266739,214.930262" style="mix-blend-mode:lighten" opacity=".601" transform="rotate(79 649.222 212.311)"/>
      <path d="M617.502024,70.4936293 L487.369117,205.871329 C562.108392,227.277788 641.661323,297.70579 681.144096,336.010697 L713.364186,302.49203 L750.282561,264.088177 L811.279407,200.632953 C736.541354,179.227681 656.984798,108.798536 617.502024,70.4936293 L617.502024,70.4936293 L617.502024,70.4936293" style="mix-blend-mode:lighten" opacity=".603" transform="rotate(28 649.324 203.252)"/>
      <path d="M570.670481,128.480676 L440.537573,263.858377 C515.276849,285.264835 594.829779,355.692837 634.312553,393.997744 L666.532642,360.479077 L703.451018,322.075224 L764.447864,258.620001 C689.709811,237.214728 610.153255,166.785583 570.670481,128.480676 L570.670481,128.480676 L570.670481,128.480676" style="mix-blend-mode:lighten" opacity=".603" transform="rotate(53 602.493 261.24)"/>
      <path d="M648.803743,165.745997 L518.670835,301.123697 C593.410111,322.530156 672.963041,392.958158 712.445815,431.263064 L744.665904,397.744397 L781.58428,359.340545 L842.581126,295.885321 C767.843073,274.480048 688.286517,204.050904 648.803743,165.745997 L648.803743,165.745997 L648.803743,165.745997" style="mix-blend-mode:lighten" opacity=".603" transform="rotate(124 680.626 298.505)"/>
      <path d="M302.196827,215.416261 C376.936103,236.82272 456.489033,307.250722 495.971807,345.555628 L528.191896,312.036961 L565.110272,273.633109 L626.107118,210.177885 C551.369065,188.772612 471.812509,118.343468 432.329735,80.0385609 L302.196827,215.416261" style="mix-blend-mode:lighten" opacity=".601" transform="rotate(-105 464.152 212.797)"/>
      <path d="M432.329735,71.0385609 L302.196827,206.416261 C376.936103,227.82272 456.489033,298.250722 495.971807,336.555628 L528.191896,303.036961 L565.110272,264.633109 L626.107118,201.177885 C551.369065,179.772612 471.812509,109.343468 432.329735,71.0385609 L432.329735,71.0385609 L432.329735,71.0385609" style="mix-blend-mode:lighten" opacity=".603" transform="rotate(-105 464.152 203.797)"/>
      <path d="M385.329735,129.038561 L255.196827,264.416261 C329.936103,285.82272 409.489033,356.250722 448.971807,394.555628 L481.191896,361.036961 L518.110272,322.633109 L579.107118,259.177885 C504.369065,237.772612 424.812509,167.343468 385.329735,129.038561 L385.329735,129.038561 L385.329735,129.038561" style="mix-blend-mode:lighten" opacity=".603" transform="rotate(-105 417.152 261.797)"/>
      <path d="M463.329735,166.038561 L333.196827,301.416261 C407.936103,322.82272 487.489033,393.250722 526.971807,431.555628 L559.191896,398.036961 L596.110272,359.633109 L657.107118,296.177885 C582.369065,274.772612 502.812509,204.343468 463.329735,166.038561 L463.329735,166.038561 L463.329735,166.038561" style="mix-blend-mode:lighten" opacity=".603" transform="rotate(-105 495.152 298.797)"/>
    </g>
    <g transform="translate(380 171)">
      <path fill="#FFFFFF" d="M26.2389146,25.9248148 L24.5885276,25.9248148 L24.5885276,29.2311111 L26.3247538,29.2311111 C27.0584221,29.2311111 27.5998693,29.0896296 27.9494623,28.8055556 C28.2986884,28.5225926 28.4736683,28.0888889 28.4736683,27.5040741 C28.4736683,26.4514815 27.7286281,25.9248148 26.2389146,25.9248148"/>
      <mask id="c" fill="white">
        <use xlink:href="#b"/>
      </mask>
      <path fill="#FFFFFF" d="M27.7044171,23.4511111 C28.0283317,23.2255556 28.1901055,22.8525926 28.1901055,22.3314815 C28.1901055,21.8455556 28.0140251,21.497037 27.6614975,21.2862963 C27.3089698,21.0748148 26.7517487,20.9696296 25.9898342,20.9696296 L24.5885276,20.9696296 L24.5885276,23.7896296 L26.1358342,23.7896296 C26.8577638,23.7896296 27.3805025,23.6766667 27.7044171,23.4511111" mask="url(#c)"/>
      <path fill="#FFFFFF" d="M43.2196683,29.9340741 C42.1881307,31.0622222 40.7097889,31.6266667 38.7842764,31.6266667 C36.8591307,31.6266667 35.3804221,31.0622222 34.3492513,29.9340741 C33.3177136,28.8059259 32.8019447,27.1859259 32.8019447,25.0740741 C32.8019447,22.9622222 33.3188141,21.3496296 34.3532864,20.2359259 C35.387392,19.1222222 36.8705025,18.5651852 38.8015176,18.5651852 C40.7325327,18.5651852 42.2097739,19.1262963 43.2325075,20.2488889 C44.255608,21.3714815 44.7669749,22.9855556 44.7669749,25.0914815 C44.7669749,27.1918519 44.251206,28.8059259 43.2196683,29.9340741 L43.2196683,29.9340741 Z M29.9993317,30.4807407 C29.1713869,31.1288889 28.0466734,31.452963 26.6255578,31.452963 L21.9238442,31.452963 L21.9238442,18.7648148 L25.8346633,18.7648148 C27.6171106,18.7648148 28.9105678,19.0207407 29.7157688,19.532963 C30.5209698,20.0448148 30.9233869,20.8592593 30.9233869,21.9759259 C30.9233869,22.7340741 30.7473065,23.3559259 30.3947789,23.8418519 C30.0426181,24.3277778 29.5741709,24.62 28.9894372,24.7181481 L28.9894372,24.8055556 C29.7858342,24.9844444 30.3602965,25.32 30.7128241,25.8118519 C31.0653518,26.3040741 31.2414322,26.9574074 31.2414322,27.7733333 C31.2414322,28.9303704 30.8276432,29.832963 29.9993317,30.4807407 L29.9993317,30.4807407 Z M19.5621658,31.452963 L17.0779648,31.452963 L17.0779648,25.4474074 C17.0779648,25.1637037 17.0823668,24.8374074 17.090804,24.4666667 C17.099608,24.0962963 17.1381256,23.3737037 17.2070905,21.777037 L17.1293216,21.777037 L13.8890754,31.452963 L11.447794,31.452963 L8.42214573,21.7848148 L8.34474372,21.7848148 C8.45369347,23.81 8.50798492,24.8744444 8.50798492,25.5514815 L8.50798492,31.452963 L6.12723116,31.452963 L6.12723116,18.7648148 C6.12723116,18.7648148 9.51017588,18.0114815 10.3821407,20.8122222 C11.153593,23.2896296 12.7287789,28.4674074 12.7287789,28.4674074 L12.7801357,28.4674074 C12.7801357,28.4674074 14.3406482,23.5711111 15.2309548,20.9292593 C16.2353467,17.95 19.5621658,18.7648148 19.5621658,18.7648148 L19.5621658,31.452963 L19.5621658,31.452963 Z M0,9.21185185 L0,50 C14.8024925,42.032963 37.6705678,40.98 49.5207789,40.98 L49.5207789,30.8814815 L49.5211457,19.3103704 L49.5211457,0.191851852 C34.7186533,8.15888889 11.8502111,9.21185185 0,9.21185185 L0,9.21185185 Z" mask="url(#c)"/>
      <path fill="#FFFFFF" d="M38.8015176 20.8044444C37.741 20.8044444 36.9416683 21.1644444 36.4031558 21.8848148 35.8642764 22.6051852 35.5953869 23.6740741 35.5953869 25.0914815 35.5953869 26.5092593 35.8617085 27.5766667 36.3947186 28.2940741 36.9277286 29.0114815 37.7237588 29.37 38.7842764 29.37 40.9104472 29.37 41.9731658 27.9440741 41.9731658 25.0914815 41.9731658 22.2333333 40.9159497 20.8044444 38.8015176 20.8044444M65.2821759 28.1507407L65.3001508 28.2051852C65.323995 29.4455556 64.892598 30.4848148 64.0059598 31.3225926 63.1189548 32.1603704 61.9476533 32.5792593 60.4916884 32.5792593 59.0115126 32.5792593 57.8057286 32.05 56.8739698 30.9911111 55.9422111 29.9325926 55.4763317 28.5896296 55.4763317 26.9622222L55.4763317 24.6118519C55.4763317 22.9844444 55.9422111 21.64 56.8739698 20.5781481 57.8057286 19.5162963 59.0115126 18.9855556 60.4916884 18.9855556 61.9718643 18.9855556 63.1490352 19.3833333 64.0239347 20.1788889 64.8988342 20.9744444 65.323995 22.0285185 65.3001508 23.3411111L65.2821759 23.3955556 63.5837337 23.3955556C63.5837337 22.47 63.3141106 21.7381481 62.7744975 21.1996296 62.2352513 20.6614815 61.4744372 20.3922222 60.4916884 20.3922222 59.5030704 20.3922222 58.7151106 20.7940741 58.127809 21.5977778 57.5405075 22.4018519 57.2470402 23.3992593 57.2470402 24.59L57.2470402 26.9566667C57.2470402 28.1596296 57.5405075 29.162963 58.127809 29.967037 58.7151106 30.7707407 59.5030704 31.1725926 60.4916884 31.1725926 61.4744372 31.1725926 62.2352513 30.9051852 62.7744975 30.3696296 63.3141106 29.8344444 63.5837337 29.0948148 63.5837337 28.1507407L65.2821759 28.1507407M75.8253568 24.5937037C75.8253568 23.3837037 75.5014422 22.3918519 74.8547136 21.617037 74.2076181 20.8425926 73.3385879 20.4555556 72.2479899 20.4555556 71.2175528 20.4555556 70.3951106 20.8425926 69.7810302 21.617037 69.1665829 22.3918519 68.8595427 23.3837037 68.8595427 24.5937037L68.8595427 26.9622222C68.8595427 28.1844444 69.1665829 29.1822222 69.7810302 29.9566667 70.3951106 30.7311111 71.2175528 31.1185185 72.2479899 31.1185185 73.3444573 31.1185185 74.2149548 30.7325926 74.8591156 29.9611111 75.5029095 29.19 75.8253568 28.1903704 75.8253568 26.9622222L75.8253568 24.5937037 75.8253568 24.5937037zM77.5956985 26.9622222C77.5956985 28.5774074 77.1001055 29.9174074 76.1085528 30.9822222 75.117 32.047037 73.8301457 32.5792593 72.2479899 32.5792593 70.7201256 32.5792593 69.4780251 32.047037 68.5224221 30.9822222 67.5668191 29.9174074 67.0888342 28.5774074 67.0888342 26.9622222L67.0888342 24.6118519C67.0888342 23.0025926 67.5668191 21.6625926 68.5224221 20.5918519 69.4780251 19.5211111 70.7201256 18.9855556 72.2479899 18.9855556 73.8301457 18.9855556 75.117 19.5196296 76.1085528 20.587037 77.1001055 21.6548148 77.5956985 22.9962963 77.5956985 24.6118519L77.5956985 26.9622222 77.5956985 26.9622222z"/>
      <polyline fill="#FFFFFF" points="90.134 32.389 88.363 32.389 82.063 22.171 82.009 22.189 82.009 32.389 80.238 32.389 80.238 19.176 82.009 19.176 88.309 29.376 88.363 29.358 88.363 19.176 90.134 19.176 90.134 32.389"/>
      <polyline fill="#FFFFFF" points="103.265 32.389 101.495 32.389 95.194 22.171 95.14 22.189 95.14 32.389 93.37 32.389 93.37 19.176 95.14 19.176 101.441 29.376 101.495 29.358 101.495 19.176 103.265 19.176 103.265 32.389"/>
      <polyline fill="#FFFFFF" points="114.267 26.263 108.272 26.263 108.272 30.982 115.184 30.982 115.184 32.389 106.501 32.389 106.501 19.176 115.085 19.176 115.085 20.583 108.272 20.583 108.272 24.857 114.267 24.857 114.267 26.263"/>
      <path fill="#FFFFFF" d="M126.508633,28.1507407 L126.526975,28.2051852 C126.550452,29.4455556 126.119055,30.4848148 125.232417,31.3225926 C124.345412,32.1603704 123.174111,32.5792593 121.718146,32.5792593 C120.23797,32.5792593 119.032186,32.05 118.100427,30.9911111 C117.168668,29.9325926 116.702789,28.5896296 116.702789,26.9622222 L116.702789,24.6118519 C116.702789,22.9844444 117.168668,21.64 118.100427,20.5781481 C119.032186,19.5162963 120.23797,18.9855556 121.718146,18.9855556 C123.197955,18.9855556 124.375492,19.3833333 125.250392,20.1788889 C126.125291,20.9744444 126.550452,22.0285185 126.526975,23.3411111 L126.508633,23.3955556 L124.809824,23.3955556 C124.809824,22.47 124.540201,21.7381481 124.000955,21.1996296 C123.461709,20.6614815 122.700894,20.3922222 121.718146,20.3922222 C120.729528,20.3922222 119.941201,20.7940741 119.354266,21.5977778 C118.766965,22.4018519 118.473131,23.3992593 118.473131,24.59 L118.473131,26.9566667 C118.473131,28.1596296 118.766965,29.162963 119.354266,29.967037 C119.941201,30.7707407 120.729528,31.1725926 121.718146,31.1725926 C122.700894,31.1725926 123.461709,30.9051852 124.000955,30.3696296 C124.540201,29.8344444 124.809824,29.0948148 124.809824,28.1507407 L126.508633,28.1507407"/>
      <polyline fill="#FFFFFF" points="137.519 20.583 133.313 20.583 133.313 32.389 131.542 32.389 131.542 20.583 127.344 20.583 127.344 19.176 137.519 19.176 137.519 20.583"/>
      <polyline fill="#FFFFFF" points="142.397 17.268 142.397 17.647 141.334 17.647 141.334 20.456 140.901 20.456 140.901 17.647 139.838 17.647 139.838 17.268 142.397 17.268"/>
      <path fill="#FFFFFF" d="M142.77993,17.2677778 L143.39291,17.2677778 L144.300824,19.962963 L145.202136,17.2677778 L145.810714,17.2677778 L145.810714,20.4555556 L145.402427,20.4555556 L145.402427,18.5740741 C145.402427,18.5088889 145.403894,18.4011111 145.406462,18.2507407 C145.409397,18.1003704 145.410864,17.9388889 145.410864,17.7666667 L144.509553,20.4555556 L144.085492,20.4555556 L143.175377,17.7666667 L143.175377,17.8644444 C143.175377,17.9425926 143.177578,18.0614815 143.18198,18.2214815 C143.186382,18.3811111 143.188216,18.4988889 143.188216,18.5740741 L143.188216,20.4555556 L142.77993,20.4555556 L142.77993,17.2677778"/>
    </g>
  </g>
</svg>
