<svg xmlns="http://www.w3.org/2000/svg" width="600" height="70" viewBox="0 0 600 70" xmlns:xlink="http://www.w3.org/1999/xlink">
  <defs>
    <rect id="a" width="600" height="760" x="212" y="50"/>
    <mask id="b" width="600" height="760" x="0" y="0" fill="white">
      <use xlink:href="#a"/>
    </mask>
    <rect id="c" width="600" height="70"/>
    <linearGradient id="d" x1="5.06%" x2="94.94%" y1="28.081%" y2="71.919%">
      <stop stop-color="#F84B4B" offset="0%"/>
      <stop stop-color="#55C8FC" offset="100%"/>
    </linearGradient>
    <polygon id="f" points="24.813 50 .022 50 .022 .192 24.813 .192 49.604 .192 49.604 50 24.813 50"/>
  </defs>
  <g fill="none" fill-rule="evenodd" transform="translate(-212 -50)">
    <rect width="1024" height="1024" fill="#F7F9FA"/>
    <use fill="#FFFFFF" stroke="#DBDBDB" stroke-width="2" mask="url(#b)" xlink:href="#a"/>
    <g transform="translate(212 50)">
      <mask id="e" fill="white">
        <use xlink:href="#c"/>
      </mask>
      <use fill="#3E434A" transform="matrix(-1 0 0 1 600 0)" xlink:href="#c"/>
      <path fill="url(#d)" d="M-52.8212968,51.930262 C22.0427521,73.3367208 101.728492,143.764723 141.27718,182.069629 L173.551059,148.550963 L210.531068,110.14711 L271.629746,46.691886 C196.766921,25.2866133 117.07755,-45.1425312 77.5288612,-83.447438 L-52.8212968,51.930262" style="mix-blend-mode:lighten" opacity=".601" mask="url(#e)" transform="rotate(79 109.404 49.311)"/>
      <path fill="url(#d)" d="M77.63141,-92.5063707 L-52.7187479,42.8713293 C22.145301,64.2777881 101.831041,134.70579 141.379729,173.010697 L173.653608,139.49203 L210.633617,101.088177 L271.732295,37.6329533 C196.86947,16.2276806 117.180098,-54.2014639 77.63141,-92.5063707 L77.63141,-92.5063707 L77.63141,-92.5063707" style="mix-blend-mode:lighten" opacity=".603" mask="url(#e)" transform="rotate(28 109.507 40.252)"/>
      <path fill="url(#d)" d="M30.721684,-34.5193235 L-99.628474,100.858377 C-24.7644251,122.264835 54.9213149,192.692837 94.4700031,230.997744 L126.743882,197.479077 L163.723891,159.075224 L224.822569,95.6200005 C149.959744,74.2147278 70.2703723,3.78558328 30.721684,-34.5193235 L30.721684,-34.5193235 L30.721684,-34.5193235" style="mix-blend-mode:lighten" opacity=".603" mask="url(#e)" transform="rotate(53 62.597 98.24)"/>
      <path fill="url(#d)" d="M108.985385,2.74599682 L-21.3647728,138.123697 C53.499276,159.530156 133.185016,229.958158 172.733704,268.263064 L205.007583,234.744397 L241.987592,196.340545 L303.08627,132.885321 C228.223445,111.480048 148.534073,41.0509036 108.985385,2.74599682 L108.985385,2.74599682 L108.985385,2.74599682" style="mix-blend-mode:lighten" opacity=".603" mask="url(#e)" transform="rotate(124 140.86 135.505)"/>
      <path fill="url(#d)" d="M346.807177,62.4366327 C421.671226,83.8430915 501.356966,154.271093 540.905654,192.576 L573.179533,159.057333 L610.159542,120.65348 L671.25822,57.1982567 C596.395395,35.792984 516.706024,-34.6361605 477.157335,-72.9410673 L346.807177,62.4366327" style="mix-blend-mode:lighten" opacity=".601" mask="url(#e)" transform="rotate(79 509.033 59.817)"/>
      <path fill="url(#d)" d="M477.259884,-82 L346.909726,53.3777 C421.773775,74.7841589 501.459515,145.212161 541.008203,183.517067 L573.282082,149.998401 L610.262091,111.594548 L671.360769,48.1393241 C596.497944,26.7340514 516.808572,-43.6950932 477.259884,-82 L477.259884,-82 L477.259884,-82" style="mix-blend-mode:lighten" opacity=".603" mask="url(#e)" transform="rotate(28 509.135 50.759)"/>
      <path fill="url(#d)" d="M430.350158,-24.0129528 L300,111.364747 C374.864049,132.771206 454.549789,203.199208 494.098477,241.504115 L526.372356,207.985448 L563.352365,169.581595 L624.451043,106.126371 C549.588218,84.7210986 469.898846,14.291954 430.350158,-24.0129528 L430.350158,-24.0129528 L430.350158,-24.0129528" style="mix-blend-mode:lighten" opacity=".603" mask="url(#e)" transform="rotate(53 462.226 108.746)"/>
      <path fill="url(#d)" d="M508.613859,13.2523675 L378.263701,148.630068 C453.12775,170.036526 532.81349,240.464528 572.362178,278.769435 L604.636057,245.250768 L641.616066,206.846915 L702.714744,143.391692 C627.851919,121.986419 548.162547,51.5572743 508.613859,13.2523675 L508.613859,13.2523675 L508.613859,13.2523675" style="mix-blend-mode:lighten" opacity=".603" mask="url(#e)" transform="rotate(124 540.49 146.01)"/>
      <path fill="url(#d)" d="M160.623619,62.4366327 C235.487668,83.8430915 315.173408,154.271093 354.722096,192.576 L386.995975,159.057333 L423.975984,120.65348 L485.074662,57.1982567 C410.211837,35.792984 330.522466,-34.6361605 290.973777,-72.9410673 L160.623619,62.4366327" style="mix-blend-mode:lighten" opacity=".601" mask="url(#e)" transform="rotate(-105 322.85 59.817)"/>
      <path fill="url(#d)" d="M291.076326,-82 L160.726168,53.3777 C235.590217,74.7841589 315.275957,145.212161 354.824645,183.517067 L387.098524,149.998401 L424.078533,111.594548 L485.177211,48.1393241 C410.314386,26.7340514 330.625014,-43.6950932 291.076326,-82 L291.076326,-82 L291.076326,-82" style="mix-blend-mode:lighten" opacity=".603" mask="url(#e)" transform="rotate(-105 322.952 50.759)"/>
      <path fill="url(#d)" d="M244.1666,-24.0129528 L113.816442,111.364747 C188.680491,132.771206 268.366231,203.199208 307.914919,241.504115 L340.188798,207.985448 L377.168807,169.581595 L438.267485,106.126371 C363.40466,84.7210986 283.715288,14.291954 244.1666,-24.0129528 L244.1666,-24.0129528 L244.1666,-24.0129528" style="mix-blend-mode:lighten" opacity=".603" mask="url(#e)" transform="rotate(-105 276.042 108.746)"/>
      <path fill="url(#d)" d="M322.430301,13.2523675 L192.080143,148.630068 C266.944192,170.036526 346.629932,240.464528 386.17862,278.769435 L418.452499,245.250768 L455.432508,206.846915 L516.531186,143.391692 C441.668361,121.986419 361.978989,51.5572743 322.430301,13.2523675 L322.430301,13.2523675 L322.430301,13.2523675" style="mix-blend-mode:lighten" opacity=".603" mask="url(#e)" transform="rotate(-105 354.306 146.01)"/>
      <g transform="translate(30.05 10)">
        <path fill="#FFFFFF" d="M26.2827191,25.9248148 L24.6295769,25.9248148 L24.6295769,29.2311111 L26.3687016,29.2311111 C27.1035948,29.2311111 27.6459459,29.0896296 27.9961225,28.8055556 C28.3459317,28.5225926 28.5212037,28.0888889 28.5212037,27.5040741 C28.5212037,26.4514815 27.7749197,25.9248148 26.2827191,25.9248148"/>
        <mask id="g" fill="white">
          <use xlink:href="#f"/>
        </mask>
        <path fill="#FFFFFF" d="M27.7506682,23.4511111 C28.0751235,23.2255556 28.2371675,22.8525926 28.2371675,22.3314815 C28.2371675,21.8455556 28.0607931,21.497037 27.7076769,21.2862963 C27.3545608,21.0748148 26.7964094,20.9696296 26.0332229,20.9696296 L24.6295769,20.9696296 L24.6295769,23.7896296 L26.1794666,23.7896296 C26.9026015,23.7896296 27.4262129,23.6766667 27.7506682,23.4511111" mask="url(#g)"/>
        <path fill="#FFFFFF" d="M43.2918214,29.9340741 C42.2585616,31.0622222 40.7777519,31.6266667 38.8490248,31.6266667 C36.9206651,31.6266667 35.4394879,31.0622222 34.4065956,29.9340741 C33.3733358,28.8059259 32.8567059,27.1859259 32.8567059,25.0740741 C32.8567059,22.9622222 33.3744381,21.3496296 34.4106375,20.2359259 C35.4464694,19.1222222 36.9320559,18.5651852 38.8662947,18.5651852 C40.8005336,18.5651852 42.2802409,19.1262963 43.304682,20.2488889 C44.3294905,21.3714815 44.8417111,22.9855556 44.8417111,25.0914815 C44.8417111,27.1918519 44.3250812,28.8059259 43.2918214,29.9340741 L43.2918214,29.9340741 Z M30.049414,30.4807407 C29.2200871,31.1288889 28.0934959,31.452963 26.6700078,31.452963 L21.960445,31.452963 L21.960445,18.7648148 L25.877793,18.7648148 C27.6632159,18.7648148 28.9588326,19.0207407 29.7653778,19.532963 C30.5719231,20.0448148 30.975012,20.8592593 30.975012,21.9759259 C30.975012,22.7340741 30.7986376,23.3559259 30.4455214,23.8418519 C30.0927727,24.3277778 29.6235434,24.62 29.0378336,24.7181481 L29.0378336,24.8055556 C29.8355601,24.9844444 30.4109815,25.32 30.7640976,25.8118519 C31.1172138,26.3040741 31.2935881,26.9574074 31.2935881,27.7733333 C31.2935881,28.9303704 30.8791084,29.832963 30.049414,30.4807407 L30.049414,30.4807407 Z M19.5948239,31.452963 L17.1064756,31.452963 L17.1064756,25.4474074 C17.1064756,25.1637037 17.110885,24.8374074 17.1193362,24.4666667 C17.128155,24.0962963 17.1667369,23.3737037 17.2358168,21.777037 L17.1579181,21.777037 L13.9122625,31.452963 L11.4669055,31.452963 L8.43620607,21.7848148 L8.35867484,21.7848148 C8.46780648,23.81 8.52218857,24.8744444 8.52218857,25.5514815 L8.52218857,31.452963 L6.13746026,31.452963 L6.13746026,18.7648148 C6.13746026,18.7648148 9.52605263,18.0114815 10.3994732,20.8122222 C11.1722133,23.2896296 12.7500289,28.4674074 12.7500289,28.4674074 L12.8014715,28.4674074 C12.8014715,28.4674074 14.3645892,23.5711111 15.2563821,20.9292593 C16.2624508,17.95 19.5948239,18.7648148 19.5948239,18.7648148 L19.5948239,31.452963 L19.5948239,31.452963 Z M0,9.21185185 L0,50 C14.8272045,42.032963 37.7334569,40.98 49.6034513,40.98 L49.6034513,30.8814815 L49.6038188,19.3103704 L49.6038188,0.191851852 C34.7766143,8.15888889 11.8699944,9.21185185 0,9.21185185 L0,9.21185185 Z" mask="url(#g)"/>
        <path fill="#FFFFFF" d="M38.8662947 20.8044444C37.8040067 20.8044444 37.0033406 21.1644444 36.463929 21.8848148 35.92415 22.6051852 35.6548116 23.6740741 35.6548116 25.0914815 35.6548116 26.5092593 35.9215778 27.5766667 36.4554777 28.2940741 36.9893776 29.0114815 37.7867367 29.37 38.8490248 29.37 40.9787451 29.37 42.0432379 27.9440741 42.0432379 25.0914815 42.0432379 22.2333333 40.9842568 20.8044444 38.8662947 20.8044444M65.3911611 28.1507407L65.409166 28.2051852C65.4330501 29.4455556 65.0009329 30.4848148 64.1128145 31.3225926 63.2243287 32.1603704 62.0510717 32.5792593 60.5926762 32.5792593 59.1100293 32.5792593 57.9022324 32.05 56.968918 30.9911111 56.0356037 29.9325926 55.5689466 28.5896296 55.5689466 26.9622222L55.5689466 24.6118519C55.5689466 22.9844444 56.0356037 21.64 56.968918 20.5781481 57.9022324 19.5162963 59.1100293 18.9855556 60.5926762 18.9855556 62.0753232 18.9855556 63.2544593 19.3833333 64.1308194 20.1788889 65.0071795 20.9744444 65.4330501 22.0285185 65.409166 23.3411111L65.3911611 23.3955556 63.6898835 23.3955556C63.6898835 22.47 63.4198102 21.7381481 62.8792963 21.1996296 62.3391498 20.6614815 61.5770656 20.3922222 60.5926762 20.3922222 59.6024077 20.3922222 58.8131324 20.7940741 58.2248505 21.5977778 57.6365685 22.4018519 57.3426112 23.3992593 57.3426112 24.59L57.3426112 26.9566667C57.3426112 28.1596296 57.6365685 29.162963 58.2248505 29.967037 58.8131324 30.7707407 59.6024077 31.1725926 60.5926762 31.1725926 61.5770656 31.1725926 62.3391498 30.9051852 62.8792963 30.3696296 63.4198102 29.8344444 63.6898835 29.0948148 63.6898835 28.1507407L65.3911611 28.1507407M75.9519434 24.5937037C75.9519434 23.3837037 75.627488 22.3918519 74.9796797 21.617037 74.3315039 20.8425926 73.461023 20.4555556 72.3686043 20.4555556 71.3364468 20.4555556 70.5126316 20.8425926 69.897526 21.617037 69.282053 22.3918519 68.9745002 23.3837037 68.9745002 24.5937037L68.9745002 26.9622222C68.9745002 28.1844444 69.282053 29.1822222 69.897526 29.9566667 70.5126316 30.7311111 71.3364468 31.1185185 72.3686043 31.1185185 73.4669021 31.1185185 74.3388529 30.7325926 74.9840891 29.9611111 75.6289578 29.19 75.9519434 28.1903704 75.9519434 26.9622222L75.9519434 24.5937037 75.9519434 24.5937037zM77.7252406 26.9622222C77.7252406 28.5774074 77.2288202 29.9174074 76.2356121 30.9822222 75.242404 32.047037 73.9534014 32.5792593 72.3686043 32.5792593 70.8381893 32.5792593 69.5940152 32.047037 68.6368168 30.9822222 67.6796185 29.9174074 67.2008356 28.5774074 67.2008356 26.9622222L67.2008356 24.6118519C67.2008356 23.0025926 67.6796185 21.6625926 68.6368168 20.5918519 69.5940152 19.5211111 70.8381893 18.9855556 72.3686043 18.9855556 73.9534014 18.9855556 75.242404 19.5196296 76.2356121 20.587037 77.2288202 21.6548148 77.7252406 22.9962963 77.7252406 24.6118519L77.7252406 26.9622222 77.7252406 26.9622222z"/>
        <polyline fill="#FFFFFF" points="90.285 32.389 88.511 32.389 82.2 22.171 82.146 22.189 82.146 32.389 80.372 32.389 80.372 19.176 82.146 19.176 88.457 29.376 88.511 29.358 88.511 19.176 90.285 19.176 90.285 32.389"/>
        <polyline fill="#FFFFFF" points="103.438 32.389 101.664 32.389 95.353 22.171 95.299 22.189 95.299 32.389 93.525 32.389 93.525 19.176 95.299 19.176 101.61 29.376 101.664 29.358 101.664 19.176 103.438 19.176 103.438 32.389"/>
        <polyline fill="#FFFFFF" points="114.458 26.263 108.453 26.263 108.453 30.982 115.376 30.982 115.376 32.389 106.679 32.389 106.679 19.176 115.277 19.176 115.277 20.583 108.453 20.583 108.453 24.857 114.458 24.857 114.458 26.263"/>
        <path fill="#FFFFFF" d="M126.719833,28.1507407 L126.738205,28.2051852 C126.761722,29.4455556 126.329605,30.4848148 125.441486,31.3225926 C124.553,32.1603704 123.379743,32.5792593 121.921348,32.5792593 C120.438701,32.5792593 119.230904,32.05 118.29759,30.9911111 C117.364275,29.9325926 116.897618,28.5896296 116.897618,26.9622222 L116.897618,24.6118519 C116.897618,22.9844444 117.364275,21.64 118.29759,20.5781481 C119.230904,19.5162963 120.438701,18.9855556 121.921348,18.9855556 C123.403627,18.9855556 124.583131,19.3833333 125.459491,20.1788889 C126.335851,20.9744444 126.761722,22.0285185 126.738205,23.3411111 L126.719833,23.3955556 L125.018188,23.3955556 C125.018188,22.47 124.748115,21.7381481 124.207968,21.1996296 C123.667822,20.6614815 122.905737,20.3922222 121.921348,20.3922222 C120.931079,20.3922222 120.141437,20.7940741 119.553522,21.5977778 C118.96524,22.4018519 118.670916,23.3992593 118.670916,24.59 L118.670916,26.9566667 C118.670916,28.1596296 118.96524,29.162963 119.553522,29.967037 C120.141437,30.7707407 120.931079,31.1725926 121.921348,31.1725926 C122.905737,31.1725926 123.667822,30.9051852 124.207968,30.3696296 C124.748115,29.8344444 125.018188,29.0948148 125.018188,28.1507407 L126.719833,28.1507407"/>
        <polyline fill="#FFFFFF" points="137.748 20.583 133.535 20.583 133.535 32.389 131.761 32.389 131.761 20.583 127.557 20.583 127.557 19.176 137.748 19.176 137.748 20.583"/>
        <polyline fill="#FFFFFF" points="142.635 17.268 142.635 17.647 141.569 17.647 141.569 20.456 141.137 20.456 141.137 17.647 140.071 17.647 140.071 17.268 142.635 17.268"/>
        <path fill="#FFFFFF" d="M143.018293,17.2677778 L143.632297,17.2677778 L144.541727,19.962963 L145.444543,17.2677778 L146.054137,17.2677778 L146.054137,20.4555556 L145.645169,20.4555556 L145.645169,18.5740741 C145.645169,18.5088889 145.646639,18.4011111 145.649211,18.2507407 C145.652151,18.1003704 145.65362,17.9388889 145.65362,17.7666667 L144.750804,20.4555556 L144.326036,20.4555556 L143.414401,17.7666667 L143.414401,17.8644444 C143.414401,17.9425926 143.416606,18.0614815 143.421015,18.2214815 C143.425424,18.3811111 143.427262,18.4988889 143.427262,18.5740741 L143.427262,20.4555556 L143.018293,20.4555556 L143.018293,17.2677778"/>
      </g>
    </g>
  </g>
</svg>
