<?xml version="1.0" encoding="UTF-8" standalone="no"?>
<svg width="148px" height="50px" viewBox="0 0 148 50" version="1.1" xmlns="http://www.w3.org/2000/svg" xmlns:xlink="http://www.w3.org/1999/xlink">
    <!-- Generator: Sketch 3.8.3 (29802) - http://www.bohemiancoding.com/sketch -->
    <title>logo-connect</title>
    <desc>Created with Sketch.</desc>
    <defs>
        <polygon id="path-1" points="25.0103704 50 0.0222222222 50 0.0222222222 0.191851852 25.0103704 0.191851852 49.9985185 0.191851852 49.9985185 50 25.0103704 50"></polygon>
    </defs>
    <g id="Symbols" stroke="none" stroke-width="1" fill="none" fill-rule="evenodd">
        <g id="Associate---Nav-Bar" transform="translate(-250.000000, -15.000000)">
            <g id="Connect_logo_white" transform="translate(250.000000, 15.000000)">
                <path d="M26.4918519,25.9248148 L24.8255556,25.9248148 L24.8255556,29.2311111 L26.5785185,29.2311111 C27.3192593,29.2311111 27.8659259,29.0896296 28.2188889,28.8055556 C28.5714815,28.5225926 28.7481481,28.0888889 28.7481481,27.5040741 C28.7481481,26.4514815 27.9959259,25.9248148 26.4918519,25.9248148" id="Fill-1" fill="#FFFFFF"></path>
                <g id="Group-5">
                    <mask id="mask-2" fill="white">
                        <use xlink:href="#path-1"></use>
                    </mask>
                    <g id="Clip-3"></g>
                    <path d="M27.9714815,23.4511111 C28.2985185,23.2255556 28.4618519,22.8525926 28.4618519,22.3314815 C28.4618519,21.8455556 28.2840741,21.497037 27.9281481,21.2862963 C27.5722222,21.0748148 27.0096296,20.9696296 26.2403704,20.9696296 L24.8255556,20.9696296 L24.8255556,23.7896296 L26.3877778,23.7896296 C27.1166667,23.7896296 27.6444444,23.6766667 27.9714815,23.4511111" id="Fill-2" fill="#FFFFFF" mask="url(#mask-2)"></path>
                    <path d="M43.6362963,29.9340741 C42.5948148,31.0622222 41.1022222,31.6266667 39.1581481,31.6266667 C37.2144444,31.6266667 35.7214815,31.0622222 34.6803704,29.9340741 C33.6388889,28.8059259 33.1181481,27.1859259 33.1181481,25.0740741 C33.1181481,22.9622222 33.64,21.3496296 34.6844444,20.2359259 C35.7285185,19.1222222 37.2259259,18.5651852 39.1755556,18.5651852 C41.1251852,18.5651852 42.6166667,19.1262963 43.6492593,20.2488889 C44.6822222,21.3714815 45.1985185,22.9855556 45.1985185,25.0914815 C45.1985185,27.1918519 44.6777778,28.8059259 43.6362963,29.9340741 L43.6362963,29.9340741 Z M30.2885185,30.4807407 C29.4525926,31.1288889 28.317037,31.452963 26.8822222,31.452963 L22.1351852,31.452963 L22.1351852,18.7648148 L26.0837037,18.7648148 C27.8833333,18.7648148 29.1892593,19.0207407 30.0022222,19.532963 C30.8151852,20.0448148 31.2214815,20.8592593 31.2214815,21.9759259 C31.2214815,22.7340741 31.0437037,23.3559259 30.6877778,23.8418519 C30.3322222,24.3277778 29.8592593,24.62 29.2688889,24.7181481 L29.2688889,24.8055556 C30.072963,24.9844444 30.652963,25.32 31.0088889,25.8118519 C31.3648148,26.3040741 31.5425926,26.9574074 31.5425926,27.7733333 C31.5425926,28.9303704 31.1248148,29.832963 30.2885185,30.4807407 L30.2885185,30.4807407 Z M19.7507407,31.452963 L17.2425926,31.452963 L17.2425926,25.4474074 C17.2425926,25.1637037 17.247037,24.8374074 17.2555556,24.4666667 C17.2644444,24.0962963 17.3033333,23.3737037 17.372963,21.777037 L17.2944444,21.777037 L14.022963,31.452963 L11.5581481,31.452963 L8.50333333,21.7848148 L8.42518519,21.7848148 C8.53518519,23.81 8.59,24.8744444 8.59,25.5514815 L8.59,31.452963 L6.1862963,31.452963 L6.1862963,18.7648148 C6.1862963,18.7648148 9.60185185,18.0114815 10.4822222,20.8122222 C11.2611111,23.2896296 12.8514815,28.4674074 12.8514815,28.4674074 L12.9033333,28.4674074 C12.9033333,28.4674074 14.4788889,23.5711111 15.3777778,20.9292593 C16.3918519,17.95 19.7507407,18.7648148 19.7507407,18.7648148 L19.7507407,31.452963 L19.7507407,31.452963 Z M0,9.21185185 L0,50 C14.9451852,42.032963 38.0337037,40.98 49.9981481,40.98 L49.9981481,30.8814815 L49.9985185,19.3103704 L49.9985185,0.191851852 C35.0533333,8.15888889 11.9644444,9.21185185 0,9.21185185 L0,9.21185185 Z" id="Fill-4" fill="#FFFFFF" mask="url(#mask-2)"></path>
                </g>
                <path d="M39.1755556,20.8044444 C38.1048148,20.8044444 37.2977778,21.1644444 36.7540741,21.8848148 C36.21,22.6051852 35.9385185,23.6740741 35.9385185,25.0914815 C35.9385185,26.5092593 36.2074074,27.5766667 36.7455556,28.2940741 C37.2837037,29.0114815 38.0874074,29.37 39.1581481,29.37 C41.3048148,29.37 42.3777778,27.9440741 42.3777778,25.0914815 C42.3777778,22.2333333 41.3103704,20.8044444 39.1755556,20.8044444" id="Fill-6" fill="#FFFFFF"></path>
                <path d="M65.9114815,28.1507407 L65.9296296,28.2051852 C65.9537037,29.4455556 65.5181481,30.4848148 64.622963,31.3225926 C63.7274074,32.1603704 62.5448148,32.5792593 61.0748148,32.5792593 C59.5803704,32.5792593 58.362963,32.05 57.4222222,30.9911111 C56.4814815,29.9325926 56.0111111,28.5896296 56.0111111,26.9622222 L56.0111111,24.6118519 C56.0111111,22.9844444 56.4814815,21.64 57.4222222,20.5781481 C58.362963,19.5162963 59.5803704,18.9855556 61.0748148,18.9855556 C62.5692593,18.9855556 63.7577778,19.3833333 64.6411111,20.1788889 C65.5244444,20.9744444 65.9537037,22.0285185 65.9296296,23.3411111 L65.9114815,23.3955556 L64.1966667,23.3955556 C64.1966667,22.47 63.9244444,21.7381481 63.3796296,21.1996296 C62.8351852,20.6614815 62.067037,20.3922222 61.0748148,20.3922222 C60.0766667,20.3922222 59.2811111,20.7940741 58.6881481,21.5977778 C58.0951852,22.4018519 57.7988889,23.3992593 57.7988889,24.59 L57.7988889,26.9566667 C57.7988889,28.1596296 58.0951852,29.162963 58.6881481,29.967037 C59.2811111,30.7707407 60.0766667,31.1725926 61.0748148,31.1725926 C62.067037,31.1725926 62.8351852,30.9051852 63.3796296,30.3696296 C63.9244444,29.8344444 64.1966667,29.0948148 64.1966667,28.1507407 L65.9114815,28.1507407" id="Fill-7" fill="#FFFFFF"></path>
                <path d="M76.5562963,24.5937037 C76.5562963,23.3837037 76.2292593,22.3918519 75.5762963,21.617037 C74.922963,20.8425926 74.0455556,20.4555556 72.9444444,20.4555556 C71.9040741,20.4555556 71.0737037,20.8425926 70.4537037,21.617037 C69.8333333,22.3918519 69.5233333,23.3837037 69.5233333,24.5937037 L69.5233333,26.9622222 C69.5233333,28.1844444 69.8333333,29.1822222 70.4537037,29.9566667 C71.0737037,30.7311111 71.9040741,31.1185185 72.9444444,31.1185185 C74.0514815,31.1185185 74.9303704,30.7325926 75.5807407,29.9611111 C76.2307407,29.19 76.5562963,28.1903704 76.5562963,26.9622222 L76.5562963,24.5937037 L76.5562963,24.5937037 Z M78.3437037,26.9622222 C78.3437037,28.5774074 77.8433333,29.9174074 76.8422222,30.9822222 C75.8411111,32.047037 74.5418519,32.5792593 72.9444444,32.5792593 C71.4018519,32.5792593 70.1477778,32.047037 69.182963,30.9822222 C68.2181481,29.9174074 67.7355556,28.5774074 67.7355556,26.9622222 L67.7355556,24.6118519 C67.7355556,23.0025926 68.2181481,21.6625926 69.182963,20.5918519 C70.1477778,19.5211111 71.4018519,18.9855556 72.9444444,18.9855556 C74.5418519,18.9855556 75.8411111,19.5196296 76.8422222,20.587037 C77.8433333,21.6548148 78.3437037,22.9962963 78.3437037,24.6118519 L78.3437037,26.9622222 L78.3437037,26.9622222 Z" id="Fill-8" fill="#FFFFFF"></path>
                <polyline id="Fill-9" fill="#FFFFFF" points="91.002963 32.3888889 89.2148148 32.3888889 82.8537037 22.1707407 82.7996296 22.1888889 82.7996296 32.3888889 81.0114815 32.3888889 81.0114815 19.1759259 82.7996296 19.1759259 89.1607407 29.3759259 89.2148148 29.3577778 89.2148148 19.1759259 91.002963 19.1759259 91.002963 32.3888889"></polyline>
                <polyline id="Fill-10" fill="#FFFFFF" points="104.260741 32.3888889 102.472963 32.3888889 96.1114815 22.1707407 96.0574074 22.1888889 96.0574074 32.3888889 94.2696296 32.3888889 94.2696296 19.1759259 96.0574074 19.1759259 102.418889 29.3759259 102.472963 29.3577778 102.472963 19.1759259 104.260741 19.1759259 104.260741 32.3888889"></polyline>
                <polyline id="Fill-11" fill="#FFFFFF" points="115.368519 26.2633333 109.315556 26.2633333 109.315556 30.9822222 116.294074 30.9822222 116.294074 32.3888889 107.527778 32.3888889 107.527778 19.1759259 116.194074 19.1759259 116.194074 20.5825926 109.315556 20.5825926 109.315556 24.8566667 115.368519 24.8566667 115.368519 26.2633333"></polyline>
                <path d="M127.728148,28.1507407 L127.746667,28.2051852 C127.77037,29.4455556 127.334815,30.4848148 126.43963,31.3225926 C125.544074,32.1603704 124.361481,32.5792593 122.891481,32.5792593 C121.397037,32.5792593 120.17963,32.05 119.238889,30.9911111 C118.298148,29.9325926 117.827778,28.5896296 117.827778,26.9622222 L117.827778,24.6118519 C117.827778,22.9844444 118.298148,21.64 119.238889,20.5781481 C120.17963,19.5162963 121.397037,18.9855556 122.891481,18.9855556 C124.385556,18.9855556 125.574444,19.3833333 126.457778,20.1788889 C127.341111,20.9744444 127.77037,22.0285185 127.746667,23.3411111 L127.728148,23.3955556 L126.012963,23.3955556 C126.012963,22.47 125.740741,21.7381481 125.196296,21.1996296 C124.651852,20.6614815 123.883704,20.3922222 122.891481,20.3922222 C121.893333,20.3922222 121.097407,20.7940741 120.504815,21.5977778 C119.911852,22.4018519 119.615185,23.3992593 119.615185,24.59 L119.615185,26.9566667 C119.615185,28.1596296 119.911852,29.162963 120.504815,29.967037 C121.097407,30.7707407 121.893333,31.1725926 122.891481,31.1725926 C123.883704,31.1725926 124.651852,30.9051852 125.196296,30.3696296 C125.740741,29.8344444 126.012963,29.0948148 126.012963,28.1507407 L127.728148,28.1507407" id="Fill-12" fill="#FFFFFF"></path>
                <polyline id="Fill-13" fill="#FFFFFF" points="138.844444 20.5825926 134.597778 20.5825926 134.597778 32.3888889 132.80963 32.3888889 132.80963 20.5825926 128.571852 20.5825926 128.571852 19.1759259 138.844444 19.1759259 138.844444 20.5825926"></polyline>
                <polyline id="Fill-14" fill="#FFFFFF" points="143.77 17.2677778 143.77 17.6474074 142.695926 17.6474074 142.695926 20.4555556 142.25963 20.4555556 142.25963 17.6474074 141.185556 17.6474074 141.185556 17.2677778 143.77 17.2677778"></polyline>
                <path d="M144.156296,17.2677778 L144.775185,17.2677778 L145.691852,19.962963 L146.601852,17.2677778 L147.216296,17.2677778 L147.216296,20.4555556 L146.804074,20.4555556 L146.804074,18.5740741 C146.804074,18.5088889 146.805556,18.4011111 146.808148,18.2507407 C146.811111,18.1003704 146.812593,17.9388889 146.812593,17.7666667 L145.902593,20.4555556 L145.474444,20.4555556 L144.555556,17.7666667 L144.555556,17.8644444 C144.555556,17.9425926 144.557778,18.0614815 144.562222,18.2214815 C144.566667,18.3811111 144.568519,18.4988889 144.568519,18.5740741 L144.568519,20.4555556 L144.156296,20.4555556 L144.156296,17.2677778" id="Fill-15" fill="#FFFFFF"></path>
            </g>
        </g>
    </g>
</svg>