<svg xmlns="http://www.w3.org/2000/svg" width="1317" height="499" viewBox="0 0 1317 499" xmlns:xlink="http://www.w3.org/1999/xlink">
  <defs>
    <path id="a" d="M17.2460285,1.99731183 C32.2768228,1.99731183 39.8070061,7.26344086 39.8070061,17.8145161 C39.8070061,23.6586022 38.0407332,27.9892473 34.505499,30.8145161 C30.9810183,33.6639785 25.5101426,35.0860215 18.1009369,35.0860215 L0.559185336,35.0860215 L0.559185336,1.99731183 L17.2460285,1.99731183 Z"/>
    <path id="c" d="M32.0429328,25.6397849 C28.7738493,27.8951613 23.4830957,29.0295699 16.1894908,29.0295699 L0.545743381,29.0295699 L0.545743381,0.811827957 L14.705499,0.811827957 C22.4023625,0.811827957 28.0318534,1.8655914 31.5939715,3.97580645 C35.1560896,6.09677419 36.9438697,9.57258065 36.9438697,14.4301075 C36.9438697,19.6397849 35.3039511,23.3709677 32.0429328,25.6397849 Z"/>
    <path id="e" d="M502.444155,0 L502.444155,407.994624 C382.738167,407.994624 151.705906,418.532258 2.17221996,498.260753 L2.17221996,90.1666667 C121.841856,90.1666667 352.736365,79.6422227 502.277675,7.5848527e-09 L502.444155,0 L502.444155,0 Z M174.69165,312.680108 L199.790468,312.680108 L199.790468,185.758065 C199.790468,185.758065 166.180204,177.594086 156.036904,207.405914 C147.046925,233.836022 131.276823,282.811828 131.276823,282.811828 L130.749898,282.811828 C130.749898,282.811828 114.842688,231.008065 107.040978,206.209677 C98.2472505,178.212366 64.0616701,185.758065 64.0616701,185.758065 L64.0616701,312.680108 L88.1200815,312.680108 L88.1200815,253.63172 C88.1200815,246.873656 87.5743381,236.223118 86.466721,215.948925 L87.2624847,215.948925 L117.810672,312.680108 L142.482037,312.680108 L175.213198,215.873656 L175.998208,215.873656 C175.307291,231.862903 174.917475,239.096774 174.834134,242.782258 C174.740041,246.497312 174.69165,249.766129 174.69165,252.599462 L174.69165,312.680108 Z M271.156497,312.680108 C285.501752,312.680108 296.881711,309.443548 305.242607,302.956989 C313.60888,296.47043 317.792016,287.443548 317.792016,275.873656 C317.792016,267.701613 316.012301,261.174731 312.43943,256.25 C308.890754,251.325269 303.075764,247.978495 295.021344,246.182796 L295.021344,245.295699 C300.941181,244.319892 305.670061,241.405914 309.234868,236.537634 C312.799674,231.680108 314.56057,225.448925 314.56057,217.862903 C314.56057,206.682796 310.511853,198.537634 302.360652,193.432796 C294.233646,188.303763 281.173442,185.758065 263.166599,185.758065 L223.655316,185.758065 L223.655316,312.680108 L271.156497,312.680108 Z M438.801874,297.489247 C449.214012,286.19086 454.429491,270.069892 454.429491,249.051075 C454.429491,227.973118 449.259715,211.811828 438.917475,200.58871 C428.591365,189.360215 413.665418,183.736559 394.169206,183.736559 C374.651487,183.736559 359.669084,189.311828 349.230061,200.462366 C338.769532,211.599462 333.548676,227.739247 333.548676,248.854839 C333.548676,270 338.745336,286.19086 349.184358,297.489247 C359.59112,308.787634 374.541263,314.430108 393.99446,314.430108 C413.436904,314.430108 428.362851,308.787634 438.801874,297.489247 Z"/>
    <path id="g" d="M33.9248065,1.85215054 C55.2760081,1.85215054 65.9542974,16.1317204 65.9542974,44.75 C65.9542974,73.2741935 55.2303055,87.5430108 33.7500611,87.5430108 C23.031446,87.5430108 14.9797149,83.9650538 9.59486762,76.7715054 C4.21808554,69.6155914 1.53507128,58.9193548 1.53507128,44.75 C1.53507128,30.5483871 4.23421589,19.8629032 9.69164969,12.6532258 C15.124888,5.43548387 23.2035031,1.85215054 33.9248065,1.85215054 Z"/>
    <path id="i" d="M52.6655804,104.591398 C39.9387373,104.591398 30.0535234,100.024194 22.9911202,90.8602151 L21.7356415,90.8602151 C22.5905499,99.3333333 22.9911202,104.505376 22.9911202,106.327957 L22.9911202,147.532258 L1.63185336,147.532258 L1.63185336,2.14784946 L18.912831,2.14784946 C19.3994297,4.04301075 20.4021996,8.5188172 21.9265173,15.6075269 L22.9911202,15.6075269 C29.6852138,5.43548387 39.6860285,0.338709677 53.0392668,0.338709677 C65.5859878,0.338709677 75.3717312,4.88709677 82.3803666,13.9892473 C89.3782485,23.077957 92.8892872,35.8629032 92.8892872,52.3064516 C92.8892872,68.7069892 89.3325458,81.5483871 82.1841141,90.7580645 C75.0652546,99.9677419 65.2257434,104.591398 52.6655804,104.591398 Z M47.4850509,17.811828 C39.0004888,17.811828 32.7903055,20.2822581 28.8840733,25.2768817 C24.9778411,30.2284946 22.9911202,38.1747312 22.9911202,49.094086 L22.9911202,52.3064516 C22.9911202,64.5322581 24.9375153,73.4139785 28.8410591,78.8924731 C32.7150305,84.3817204 39.0596334,87.1317204 47.8345418,87.1317204 C55.2383707,87.1317204 60.95389,84.094086 64.9595927,78.0268817 C68.9626069,71.9596774 70.970835,63.3252688 70.970835,52.094086 C70.970835,40.8198925 68.9626069,32.2715054 64.9945418,26.4865591 C61.0130346,20.7123656 55.192668,17.811828 47.4850509,17.811828 Z"/>
    <path id="k" d="M72.2666395,102.793011 L67.9813442,88.7526882 L67.2474134,88.7526882 C62.4083096,94.8978495 57.5154379,99.061828 52.5983707,101.282258 C47.692057,103.462366 41.3824033,104.591398 33.6640326,104.591398 C23.8030143,104.591398 16.0846436,101.927419 10.5196741,96.5887097 C4.98696538,91.2473118 2.20179226,83.7043011 2.20179226,73.9435484 C2.20179226,63.5591398 6.06501018,55.7446237 13.7618737,50.4543011 C21.4560489,45.1989247 33.1908758,42.3091398 48.9717312,41.8198925 L66.3521792,41.266129 L66.3521792,35.9086022 C66.3521792,29.4865591 64.8251731,24.6747312 61.8464358,21.483871 C58.8166191,18.3172043 54.1791446,16.7123656 47.8587373,16.7123656 C42.721222,16.7123656 37.7665173,17.4677419 33.0510794,18.9811828 C28.311446,20.5053763 23.7573116,22.2822581 19.3913646,24.3413978 L12.4821996,9.07258065 C17.936945,6.20967742 23.9213035,4.0672043 30.4003259,2.55645161 C36.8901018,1.06451613 43.0250102,0.325268817 48.7862322,0.325268817 C61.5856619,0.325268817 71.2450509,3.13978495 77.756334,8.71505376 C84.2837475,14.2741935 87.5447658,23.0403226 87.5447658,35.0053763 L87.5447658,102.793011 L72.2666395,102.793011 Z M40.4065173,88.2177419 C48.173279,88.2177419 54.3942159,86.0376344 59.0989002,81.7123656 C63.8008961,77.3790323 66.1613035,71.2930108 66.1613035,63.4784946 L66.1613035,54.7231183 L53.2570265,55.2849462 C43.1648065,55.6397849 35.8550713,57.327957 31.2686762,60.3198925 C26.6930346,63.3252688 24.3917719,67.938172 24.3917719,74.1317204 C24.3917719,78.6129032 25.7279022,82.0806452 28.4028513,84.5241935 C31.0670468,86.9892473 35.0673727,88.2177419 40.4065173,88.2177419 Z"/>
    <path id="m" d="M51.2434216,0.325268817 C55.550224,0.325268817 59.1096538,0.637096774 61.8894501,1.25806452 L59.8005703,21.1747312 C56.7707536,20.4327957 53.6118941,20.0645161 50.3374338,20.0645161 C41.7749084,20.0645161 34.849613,22.8817204 29.5481059,28.4569892 C24.2358452,34.0268817 21.5716497,41.266129 21.5716497,50.1827957 L21.5716497,102.793011 L0.201629328,102.793011 L0.201629328,2.14784946 L16.9503055,2.14784946 L19.7650509,19.9032258 L20.8699796,19.9032258 C24.1982077,13.8817204 28.5641548,9.13172043 33.914053,5.6155914 C39.2881466,2.10215054 45.0493686,0.325268817 51.2434216,0.325268817 Z"/>
    <path id="o" d="M51.665499,108.819892 C56.8756008,108.819892 62.0991446,108.005376 67.3226884,106.357527 L67.3226884,122.454301 C64.9380855,123.5 61.8975153,124.357527 58.1660285,125.061828 C54.4479837,125.755376 50.579389,126.096774 46.5629328,126.096774 C26.2951527,126.096774 16.1841141,115.44086 16.1841141,94.0725806 L16.1841141,39.8413978 L2.44643585,39.8413978 L2.44643585,30.3951613 L17.1815071,22.5698925 L24.4724236,1.29301075 L37.6562933,1.29301075 L37.6562933,23.6532258 L66.309165,23.6532258 L66.309165,39.8413978 L37.6562933,39.8413978 L37.6562933,93.7096774 C37.6562933,98.8763441 38.946721,102.663978 41.524888,105.126344 C44.0842363,107.577957 47.4662322,108.819892 51.665499,108.819892 Z"/>
    <path id="q" d="M89.4185743,102.793011 L67.9463951,102.793011 L67.9463951,40.9032258 C67.9463951,33.1451613 66.3736864,27.3575269 63.2605295,23.5322581 C60.128554,19.7177419 55.1792261,17.811828 48.3883503,17.811828 C39.3419145,17.811828 32.7365377,20.4946237 28.5426477,25.7956989 C24.3675764,31.1424731 22.2652546,40.0833333 22.2652546,52.6370968 L22.2652546,102.793011 L0.873727088,102.793011 L0.873727088,2.14784946 L17.6197149,2.14784946 L20.6226477,15.3494624 L21.7168228,15.3494624 C24.7412627,10.5591398 29.0615071,6.86827957 34.6479837,4.24462366 C40.2317719,1.63709677 46.4043177,0.338709677 53.2086354,0.338709677 C77.3423218,0.338709677 89.4185743,12.6075269 89.4185743,37.1908602 L89.4185743,102.793011 Z"/>
    <path id="s" d="M50.3992668,104.591398 C34.7474542,104.591398 22.5072098,100.024194 13.694664,90.9005376 C4.85792261,81.7553763 0.422077393,69.2258065 0.422077393,53.1989247 C0.422077393,36.7607527 4.55682281,23.8333333 12.718778,14.4462366 C20.9210591,5.04032258 32.1800407,0.338709677 46.4795927,0.338709677 C59.770998,0.338709677 70.2637882,4.3655914 77.9714053,12.438172 C85.6548269,20.5053763 89.5234216,31.6102151 89.5234216,45.7284946 L89.5234216,57.2956989 L22.4695723,57.2956989 C22.7652953,67.0430108 25.3999185,74.5510753 30.3949491,79.811828 C35.344277,85.0645161 42.3744196,87.6693548 51.4074134,87.6693548 C57.3326273,87.6693548 62.8734012,87.1048387 68.0109165,85.9811828 C73.1269246,84.8790323 78.6381263,82.9919355 84.5095723,80.3817204 L84.5095723,97.7715054 C79.2994705,100.244624 74.030224,102.018817 68.6910794,103.067204 C63.346558,104.096774 57.2519756,104.591398 50.3992668,104.591398 Z M46.4795927,16.5376344 C39.710224,16.5376344 34.2393483,18.688172 30.1476171,22.9865591 C26.0639511,27.311828 23.6175153,33.577957 22.8325051,41.8198925 L68.5028921,41.8198925 C68.3846029,33.5295699 66.3790631,27.2177419 62.4943381,22.9462366 C58.6257434,18.655914 53.2839104,16.5376344 46.4795927,16.5376344 Z"/>
    <path id="u" d="M52.5177189,0.325268817 C56.8352749,0.325268817 60.3785743,0.637096774 63.174501,1.25806452 L61.0694908,21.1747312 C58.0477393,20.4327957 54.8754379,20.0645161 51.6117312,20.0645161 C43.0599593,20.0645161 36.1239104,22.8817204 30.8170265,28.4569892 C25.5182077,34.0268817 22.8567006,41.266129 22.8567006,50.1827957 L22.8567006,102.793011 L1.48936864,102.793011 L1.48936864,2.14784946 L18.232668,2.14784946 L21.0366599,19.9032258 L22.1389002,19.9032258 C25.4725051,13.8817204 29.8115682,9.13172043 35.17222,5.6155914 C40.5731976,2.10215054 46.3397963,0.325268817 52.5177189,0.325268817 Z"/>
    <path id="w" d="M75.6782077,74.1317204 C75.6782077,83.938172 72.0999593,91.4946237 64.9461507,96.7284946 C57.770835,101.962366 47.533442,104.591398 34.1748269,104.591398 C20.7866395,104.591398 10.0276986,102.569892 1.88725051,98.4919355 L1.88725051,80.0430108 C13.7107943,85.483871 24.7197556,88.2177419 34.9033809,88.2177419 C48.0657434,88.2177419 54.6361711,84.2311828 54.6361711,76.2876344 C54.6361711,73.7553763 53.934501,71.6209677 52.4854582,69.9274194 C51.0175967,68.2311828 48.6222403,66.4811828 45.2886354,64.6478495 C41.944277,62.8198925 37.317556,60.7768817 31.370835,58.4650538 C19.7758045,53.9758065 11.9525866,49.4892473 7.85010183,45.0080645 C3.76105906,40.5026882 1.69906314,34.6989247 1.69906314,27.5430108 C1.69906314,18.922043 5.18321792,12.2419355 12.1353971,7.45698925 C19.0741344,2.70698925 28.5076986,0.325268817 40.4683503,0.325268817 C52.2945825,0.325268817 63.4890428,2.72580645 74.0382892,7.50806452 L67.1291242,23.6317204 C56.265336,19.1344086 47.1274949,16.8978495 39.7371079,16.8978495 C28.4512424,16.8978495 22.8163747,20.0887097 22.8163747,26.5483871 C22.8163747,29.7043011 24.2976782,32.3467742 27.2334012,34.5268817 C30.1637475,36.7177419 36.5943788,39.7311828 46.4715275,43.5295699 C54.7920978,46.7688172 60.8114053,49.7016129 64.5912831,52.3521505 C68.3200815,55.0403226 71.1267617,58.1155914 72.9441141,61.5967742 C74.7641548,65.0967742 75.6782077,69.2741935 75.6782077,74.1317204 Z"/>
    <path id="y" d="M12.952831,3.72849462 C11.9312424,2.98924731 10.6273727,2.61827957 9.03315682,2.61827957 C8.39063136,2.61827957 7.75348269,2.68010753 7.12977597,2.80913978 C6.50875764,2.93817204 5.95494908,3.15322581 5.4710387,3.45698925 C4.98443992,3.75806452 4.6,4.15860215 4.30696538,4.66666667 C4.01930754,5.16935484 3.87144603,5.80107527 3.87144603,6.55376344 C3.87144603,7.26344086 4.08114053,7.83602151 4.50052953,8.27688172 C4.92260692,8.72043011 5.48179226,9.07795699 6.18077393,9.36021505 C6.87706721,9.63709677 7.66745418,9.86827957 8.54924644,10.0537634 C9.4310387,10.2365591 10.3289613,10.4327957 11.2430143,10.6478495 C12.1570672,10.8629032 13.0549898,11.1155914 13.9367821,11.4086022 C14.8185743,11.6989247 15.6089613,12.0887097 16.307943,12.5860215 C17.0069246,13.0806452 17.5687984,13.7043011 17.985499,14.4543011 C18.404888,15.2096774 18.6145825,16.1532258 18.6145825,17.2956989 C18.6145825,18.5188172 18.343055,19.5698925 17.7946232,20.4408602 C17.2461914,21.3091398 16.5391446,22.0215054 15.6815479,22.5698925 C14.8185743,23.1182796 13.8561303,23.5134409 12.7915275,23.7607527 C11.7269246,24.0080645 10.6676986,24.1344086 9.61653768,24.1344086 C8.32342159,24.1344086 7.10289206,23.9704301 5.95494908,23.6478495 C4.80431772,23.3252688 3.79348269,22.8387097 2.92244399,22.1801075 C2.0487169,21.5241935 1.36317719,20.688172 0.855071283,19.6666667 C0.352342159,18.6451613 0.0996334012,17.4354839 0.0996334012,16.0349462 L3.00309572,16.0349462 C3.00309572,17.0053763 3.1885947,17.8387097 3.56765784,18.5376344 C3.9413442,19.2365591 4.43600815,19.8091398 5.05164969,20.2607527 C5.66191446,20.7123656 6.37971487,21.0456989 7.19429735,21.2634409 C8.01156823,21.4784946 8.85303462,21.5860215 9.71063136,21.5860215 C10.4015479,21.5860215 11.0951527,21.5188172 11.791446,21.3897849 C12.4904277,21.2634409 13.1221996,21.0403226 13.6813849,20.7284946 C14.2405703,20.4193548 14.69222,19.9946237 15.0336456,19.4569892 C15.3777597,18.9166667 15.5525051,18.2311828 15.5525051,17.3897849 C15.5525051,16.594086 15.3428106,15.9516129 14.9207332,15.4543011 C14.5013442,14.9623656 13.9421589,14.5564516 13.2431772,14.2446237 C12.5468839,13.9354839 11.7564969,13.6801075 10.8747047,13.4892473 C9.99022403,13.2956989 9.09230143,13.094086 8.18093686,12.8897849 C7.26688391,12.6854839 6.3689613,12.4489247 5.48716904,12.1827957 C4.60537678,11.9139785 3.81498982,11.5564516 3.11600815,11.1155914 C2.41433809,10.6774194 1.85515275,10.1048387 1.43845214,9.40591398 C1.01906314,8.70967742 0.806680244,7.83064516 0.806680244,6.77956989 C0.806680244,5.6155914 1.04325866,4.61021505 1.51641548,3.76344086 C1.9895723,2.91129032 2.6186558,2.21505376 3.40366599,1.66397849 C4.18867617,1.1155914 5.081222,0.709677419 6.08130346,0.438172043 C7.08138493,0.172043011 8.10835031,0.0349462366 9.16488798,0.0349462366 C10.3450916,0.0349462366 11.4446436,0.177419355 12.4554786,0.454301075 C13.4636253,0.73655914 14.3507943,1.17741935 15.1169857,1.77956989 C15.8778004,2.37903226 16.4826884,3.13709677 16.9235845,4.05107527 C17.3644807,4.96774194 17.6064358,6.05645161 17.6467617,7.32795699 L14.7432994,7.32795699 C14.5739308,5.67204301 13.9744196,4.47043011 12.952831,3.72849462 Z"/>
    <polygon id="A" points="4.387 .583 11.649 19.938 18.937 .583 23.134 .583 23.134 23.618 20.23 23.618 20.23 4.457 20.163 4.457 12.971 23.618 10.358 23.618 3.164 4.457 3.1 4.457 3.1 23.618 .196 23.618 .196 .583"/>
  </defs>
  <g fill="none" fill-rule="evenodd" transform="translate(-2)">
    <g transform="translate(250.02 255.376)">
      <mask id="b" fill="white">
        <use xlink:href="#a"/>
      </mask>
      <polygon fill="#AB303D" points=".323 35.108 40.003 35.108 40.003 1.882 .323 1.882" mask="url(#b)"/>
    </g>
    <g transform="translate(250.02 206.99)">
      <mask id="d" fill="white">
        <use xlink:href="#c"/>
      </mask>
      <polygon fill="#AB303D" points=".323 29.301 37.1 29.301 37.1 .591 .323 .591" mask="url(#d)"/>
    </g>
    <mask id="f" fill="white">
      <use xlink:href="#e"/>
    </mask>
    <polygon fill="#AB303D" points="1.936 498.548 502.622 498.548 502.622 -.161 1.936 -.161" mask="url(#f)"/>
    <g transform="translate(360.244 204.301)">
      <mask id="h" fill="white">
        <use xlink:href="#g"/>
      </mask>
      <polygon fill="#AB303D" points="1.398 87.796 66.242 87.796 66.242 1.667 1.398 1.667" mask="url(#h)"/>
    </g>
    <g transform="translate(548.432 212.366)">
      <mask id="j" fill="white">
        <use xlink:href="#i"/>
      </mask>
      <polygon fill="#AB303D" points="1.613 147.796 92.911 147.796 92.911 .054 1.613 .054" mask="url(#j)"/>
    </g>
    <g transform="translate(650.59 212.366)">
      <mask id="l" fill="white">
        <use xlink:href="#k"/>
      </mask>
      <polygon fill="#AB303D" points="2.043 104.892 87.857 104.892 87.857 .054 2.043 .054" mask="url(#l)"/>
    </g>
    <g transform="translate(752.75 212.366)">
      <mask id="n" fill="white">
        <use xlink:href="#m"/>
      </mask>
      <polygon fill="#AB303D" points="-.108 102.957 62.156 102.957 62.156 .054 -.108 .054" mask="url(#n)"/>
    </g>
    <g transform="translate(822.648 190.86)">
      <mask id="p" fill="white">
        <use xlink:href="#o"/>
      </mask>
      <polygon fill="#AB303D" points="2.258 126.398 67.425 126.398 67.425 1.237 2.258 1.237" mask="url(#p)"/>
    </g>
    <g transform="translate(905.988 212.366)">
      <mask id="r" fill="white">
        <use xlink:href="#q"/>
      </mask>
      <polygon fill="#AB303D" points=".86 102.957 89.577 102.957 89.577 .054 .86 .054" mask="url(#r)"/>
    </g>
    <g transform="translate(1008.147 212.366)">
      <mask id="t" fill="white">
        <use xlink:href="#s"/>
      </mask>
      <polygon fill="#AB303D" points=".323 104.892 89.685 104.892 89.685 .054 .323 .054" mask="url(#t)"/>
    </g>
    <g transform="translate(1110.305 212.366)">
      <mask id="v" fill="white">
        <use xlink:href="#u"/>
      </mask>
      <polygon fill="#AB303D" points="1.398 102.957 63.338 102.957 63.338 .054 1.398 .054" mask="url(#v)"/>
    </g>
    <g transform="translate(1180.204 212.366)">
      <mask id="x" fill="white">
        <use xlink:href="#w"/>
      </mask>
      <polygon fill="#AB303D" points="1.505 104.892 75.705 104.892 75.705 .054 1.505 .054" mask="url(#x)"/>
    </g>
    <g transform="translate(1274.609 318.204)">
      <mask id="z" fill="white">
        <use xlink:href="#y"/>
      </mask>
      <polygon fill="#AB303D" points=".043 24.215 18.754 24.215 18.754 .022 .043 .022" mask="url(#z)"/>
    </g>
    <g transform="translate(1295.804 318.204)">
      <mask id="B" fill="white">
        <use xlink:href="#A"/>
      </mask>
      <polygon fill="#AB303D" points=".108 23.892 23.335 23.892 23.335 .344 .108 .344" mask="url(#B)"/>
    </g>
  </g>
</svg>
