<svg xmlns="http://www.w3.org/2000/svg" width="131" height="50" viewBox="0 0 131 50" xmlns:xlink="http://www.w3.org/1999/xlink">
  <defs>
    <polygon id="a" points="49.953 49.984 .016 49.984 .016 .165 24.985 .165 49.953 .165 49.953 49.984"/>
  </defs>
  <g fill="none" fill-rule="evenodd">
    <path fill="#9B333A" d="M128.881182 23.1075269L129.124391 23.1075269C129.244654 23.1075269 129.341025 23.0763441 129.414041 23.0139785 129.486789 22.9516129 129.523297 22.872043 129.523297 22.7758065 129.523297 22.663172 129.490816 22.5822581 129.426389 22.5333333 129.361695 22.4846774 129.259686 22.4602151 129.119828 22.4602151L128.881182 22.4602151 128.881182 23.1075269zM129.85885 22.7669355C129.85885 22.8870968 129.826906 22.9935484 129.763016 23.0860215 129.699395 23.1784946 129.609467 23.2473118 129.493768 23.2924731L130.030117 24.1836022 129.651613 24.1836022 129.185328 23.3849462 128.881182 23.3849462 128.881182 24.1836022 128.547777 24.1836022 128.547777 22.1736559 129.135666 22.1736559C129.385049 22.1736559 129.567859 22.2225806 129.684363 22.3201613 129.800598 22.4180108 129.85885 22.5669355 129.85885 22.7669355zM127.714262 23.1774194C127.714262 23.4376344 127.779494 23.680914 127.910225 23.9072581 128.040957 24.1336022 128.219203 24.311828 128.445232 24.4419355 128.67126 24.572043 128.913395 24.6370968 129.171637 24.6370968 129.4331 24.6370968 129.675504 24.5715054 129.899385 24.4405914 130.123266 24.3099462 130.300707 24.1327957 130.432244 23.9094086 130.563512 23.6860215 130.629281 23.4422043 130.629281 23.1774194 130.629281 22.9158602 130.564049 22.6728495 130.433318 22.4489247 130.302586 22.2247312 130.125682 22.0467742 129.902875 21.9153226 129.679799 21.7836022 129.436053 21.7180108 129.171637 21.7180108 128.910443 21.7180108 128.668039 21.7833333 128.444158 21.9142473 128.220277 22.0448925 128.042836 22.222043 127.911299 22.4454301 127.780031 22.6688172 127.714262 22.9126344 127.714262 23.1774194zM127.477764 23.1774194C127.477764 22.8766129 127.552928 22.5946237 127.702988 22.3314516 127.853316 22.0682796 128.059748 21.8607527 128.322553 21.708871 128.585359 21.5569892 128.868297 21.4811828 129.171637 21.4811828 129.472025 21.4811828 129.753621 21.5561828 130.016426 21.7067204 130.279232 21.8569892 130.486469 22.0637097 130.638139 22.3268817 130.789809 22.5900538 130.865779 22.8736559 130.865779 23.1774194 130.865779 23.4736559 130.793031 23.7518817 130.647266 24.0120968 130.501502 24.2723118 130.297486 24.4806452 130.034412 24.6370968 129.771607 24.7932796 129.484105 24.8715054 129.171637 24.8715054 128.860781 24.8715054 128.574084 24.7938172 128.311279 24.638172 128.048473 24.4825269 127.84392 24.2744624 127.69735 24.0142473 127.551049 23.7543011 127.477764 23.4752688 127.477764 23.1774194L127.477764 23.1774194zM26.4703217 25.9112903L24.8040984 25.9112903 24.8040984 29.2201613 26.5556865 29.2201613C27.2955143 29.2201613 27.8417951 29.077957 28.1937234 28.7930108 28.5467254 28.5104839 28.7230922 28.0774194 28.7230922 27.4930108 28.7230922 26.4379032 27.9711844 25.9112903 26.4703217 25.9112903"/>
    <mask id="b" fill="white">
      <use xlink:href="#a"/>
    </mask>
    <path fill="#9B333A" d="M27.9478299,23.436828 C28.2734508,23.2099462 28.4372008,22.836828 28.4372008,22.3158602 C28.4372008,21.8301075 28.2586865,21.4825269 27.903,21.2704301 C27.5473135,21.0594086 26.9851947,20.9540323 26.2166434,20.9540323 L24.8027561,20.9540323 L24.8027561,23.7758065 L26.3648238,23.7758065 C27.0931086,23.7758065 27.6214037,23.6623656 27.9478299,23.436828" mask="url(#b)"/>
    <path fill="#9B333A" d="M43.5985717,29.9228495 C42.556209,31.0526882 41.0658156,31.6169355 39.1244385,31.6169355 C37.1819877,31.6169355 35.6891783,31.0526882 34.6500369,29.9228495 C33.6076742,28.7930108 33.0887746,27.1739247 33.0887746,25.0594086 C33.0887746,22.9478495 33.6100902,21.333871 34.6546004,20.2201613 C35.6969631,19.1051075 37.1929939,18.5475806 39.1418873,18.5475806 C41.0886332,18.5475806 42.5790266,19.1099462 43.6101148,20.2327957 C44.6428135,21.3551075 45.1590287,22.9712366 45.1590287,25.0790323 C45.1590287,27.180914 44.63825,28.7930108 43.5985717,29.9228495 Z M26.8587582,31.4419355 L22.1156455,31.4419355 L22.1156455,18.7497312 L26.0609467,18.7497312 C27.8589754,18.7497312 29.1630697,19.0043011 29.9745717,19.5172043 C30.7884898,20.0276882 31.1927643,20.8422043 31.1927643,21.9602151 C31.1927643,22.7188172 31.0169344,23.3419355 30.6609795,23.8276882 C30.3050246,24.3145161 29.832834,24.605914 29.2417234,24.7034946 L29.2417234,24.7922043 C30.0459775,24.9717742 30.6266189,25.3064516 30.9809631,25.7989247 C31.3377234,26.2913978 31.5154324,26.944086 31.5154324,27.7612903 C31.5154324,28.9182796 31.0977357,29.8209677 30.2623422,30.4696237 C29.4274857,31.1182796 28.291168,31.4419355 26.8587582,31.4419355 Z M17.2265,31.4419355 L17.2265,25.433871 C17.2265,25.1505376 17.231332,24.8236559 17.2407275,24.4521505 C17.2490492,24.0836022 17.2879734,23.3602151 17.3569631,21.7612903 L17.2785779,21.7612903 L14.0102889,31.4419355 L11.546791,31.4419355 L8.49647746,21.7688172 L8.41701844,21.7688172 C8.5276168,23.7962366 8.58211066,24.8612903 8.58211066,25.5370968 L8.58211066,31.4419355 L6.17981762,31.4419355 L6.17981762,18.7497312 C6.17981762,18.7497312 9.59333402,17.9951613 10.4714098,20.7948925 C11.2504303,23.2747312 12.8388053,28.4551075 12.8388053,28.4551075 L12.8914201,28.4551075 C12.8914201,28.4551075 14.4661045,23.5575269 15.3637766,20.9145161 C16.3766107,17.9333333 19.7326803,18.7497312 19.7326803,18.7497312 L19.7326803,31.4419355 L17.2265,31.4419355 Z M0,9.1905914 L0,50 C14.9313156,42.0271505 38.0004693,40.9733871 49.9534139,40.9733871 L49.9534139,0.165053763 C35.0218299,8.13736559 11.95375,9.1905914 0,9.1905914 L0,9.1905914 Z" mask="url(#b)"/>
    <path fill="#9B333A" d="M39.1418873 20.7892473C38.0713381 20.7892473 37.264668 21.1475806 36.7221455 21.8693548 36.177207 22.5903226 35.9076906 23.658871 35.9076906 25.0790323 35.9076906 26.4959677 36.1755963 27.5655914 36.7124816 28.2811828 37.2501721 29.0005376 38.0541578 29.3583333 39.1244385 29.3583333 41.2692951 29.3583333 42.3401127 27.9314516 42.3401127 25.0790323 42.3401127 22.2172043 41.2738586 20.7892473 39.1418873 20.7892473M59.2868955 23.1916667C58.4396906 23.1916667 57.8195881 23.4387097 57.429541 23.938172 57.0394939 24.4333333 56.8411148 25.227957 56.8411148 26.3198925L56.8411148 26.641129C56.8411148 27.8637097 57.0354672 28.7518817 57.4252459 29.2997312 57.8120717 29.8486559 58.4455963 30.1236559 59.321793 30.1236559 60.061084 30.1236559 60.631793 29.8198925 61.0317725 29.213172 61.4314836 28.6064516 61.6320102 27.7430108 61.6320102 26.6198925 61.6320102 25.4924731 61.4314836 24.6376344 61.0352623 24.0591398 60.6376988 23.4817204 60.0565205 23.1916667 59.2868955 23.1916667M59.8041844 31.8696237C58.533377 31.8696237 57.5463135 31.4129032 56.8411148 30.4965054L56.715752 30.4965054C56.8011168 31.3438172 56.8411148 31.8610215 56.8411148 32.0432796L56.8411148 36.1637097 54.7083381 36.1637097 54.7083381 21.6252688 56.4338873 21.6252688C56.4824754 21.8147849 56.5826045 22.2623656 56.7348115 22.9712366L56.8411148 22.9712366C57.5095369 21.9540323 58.5081434 21.4443548 59.841498 21.4443548 61.0943197 21.4443548 62.0714508 21.8991935 62.7712807 22.8094086 63.4700369 23.7182796 63.820623 24.9967742 63.820623 26.641129 63.820623 28.2811828 63.4654734 29.5653226 62.7516844 30.4862903 62.0408484 31.4072581 61.0583484 31.8696237 59.8041844 31.8696237M68.7809057 30.2322581C69.5564365 30.2322581 70.1776127 30.0142473 70.6473873 29.5817204 71.1168934 29.1483871 71.3525861 28.5397849 71.3525861 27.7583333L71.3525861 26.8827957 70.0640615 26.9389785C69.0563279 26.9744624 68.3264324 27.1432796 67.8684693 27.4424731 67.4115799 27.7430108 67.181793 28.2043011 67.181793 28.8236559 67.181793 29.2717742 67.315209 29.6185484 67.5823094 29.8629032 67.8483361 30.1094086 68.2477787 30.2322581 68.7809057 30.2322581zM71.9622193 31.6897849L71.5343217 30.2857527 71.4610369 30.2857527C70.9778402 30.9002688 70.4892746 31.3166667 69.998293 31.5387097 69.5083852 31.7567204 68.8783504 31.8696237 68.1076516 31.8696237 67.1230041 31.8696237 66.3523053 31.6032258 65.7966291 31.0693548 65.2441742 30.5352151 64.9660676 29.780914 64.9660676 28.8048387 64.9660676 27.7663978 65.3518197 26.9849462 66.1203709 26.455914 66.8886537 25.9303763 68.0604057 25.6413978 69.6361639 25.5924731L71.3716455 25.5370968 71.3716455 25.0013441C71.3716455 24.3591398 71.2191701 23.877957 70.9217357 23.558871 70.6192008 23.2422043 70.1561373 23.0817204 69.5250287 23.0817204 69.0120348 23.0817204 68.5172951 23.1572581 68.0464467 23.3086022 67.5731824 23.4610215 67.1184406 23.6387097 66.6824898 23.8446237L65.9925922 22.3177419C66.5372623 22.0314516 67.1348156 21.8172043 67.7817623 21.666129 68.4297828 21.5169355 69.0423689 21.4430108 69.6176414 21.4430108 70.8956967 21.4430108 71.8602111 21.7244624 72.5103791 22.2819892 73.1621578 22.8379032 73.4877787 23.7145161 73.4877787 24.9110215L73.4877787 31.6897849 71.9622193 31.6897849 71.9622193 31.6897849zM80.0638176 21.4430108C80.4938627 21.4430108 80.8492807 21.4741935 81.1268504 21.5362903L80.9182705 23.527957C80.6157357 23.4537634 80.3003156 23.4169355 79.9733525 23.4169355 79.1183627 23.4169355 78.4268545 23.6986559 77.8974857 24.2561828 77.367043 24.813172 77.1010164 25.5370968 77.1010164 26.4287634L77.1010164 31.6897849 74.967166 31.6897849 74.967166 21.6252688 76.6395635 21.6252688 76.920623 23.4008065 77.0309529 23.4008065C77.3632848 22.7986559 77.7992357 22.3236559 78.3334365 21.972043 78.8700533 21.6206989 79.4453258 21.4430108 80.0638176 21.4430108M87.0854713 30.1419355C87.6057131 30.1419355 88.1272971 30.0604839 88.6488811 29.8956989L88.6488811 31.5053763C88.4107725 31.6099462 88.1071639 31.6956989 87.7345656 31.766129 87.3633094 31.8354839 86.9770205 31.8696237 86.5759672 31.8696237 84.5521783 31.8696237 83.5425656 30.8040323 83.5425656 28.6672043L83.5425656 23.244086 82.1708238 23.244086 82.1708238 22.2994624 83.6421578 21.5169355 84.3701742 19.3892473 85.6866168 19.3892473 85.6866168 21.6252688 88.5476783 21.6252688 88.5476783 23.244086 85.6866168 23.244086 85.6866168 28.630914C85.6866168 29.1475806 85.8154693 29.5263441 86.0729057 29.7725806 86.3284631 30.0177419 86.6661639 30.1419355 87.0854713 30.1419355M99.1769324 31.6897849L97.0328811 31.6897849 97.0328811 25.5008065C97.0328811 24.725 96.8758422 24.1462366 96.5649857 23.7637097 96.25225 23.3822581 95.7580471 23.1916667 95.0799611 23.1916667 94.1766516 23.1916667 93.5170881 23.4599462 93.0983176 23.9900538 92.6814262 24.5247312 92.4715041 25.4188172 92.4715041 26.6741935L92.4715041 31.6897849 90.3355061 31.6897849 90.3355061 21.6252688 92.0076352 21.6252688 92.3074857 22.9454301 92.4167418 22.9454301C92.7187398 22.4663978 93.150127 22.0973118 93.7079508 21.8349462 94.2655061 21.5741935 94.8818504 21.4443548 95.5612787 21.4443548 97.9710881 21.4443548 99.1769324 22.6712366 99.1769324 25.1295699L99.1769324 31.6897849M105.090186 23.0642473C104.414248 23.0642473 103.867967 23.2793011 103.459398 23.7091398 103.051633 24.1416667 102.80735 24.7682796 102.728965 25.5924731L107.289268 25.5924731C107.277457 24.7634409 107.077199 24.1322581 106.689299 23.7051075 106.30301 23.2760753 105.769615 23.0642473 105.090186 23.0642473M105.481576 31.8696237C103.918703 31.8696237 102.696484 31.4129032 101.816529 30.5005376 100.934158 29.5860215 100.491227 28.3330645 100.491227 26.7303763 100.491227 25.0865591 100.904092 23.7938172 101.719084 22.8551075 102.538102 21.9145161 103.66234 21.4443548 105.090186 21.4443548 106.417367 21.4443548 107.465098 21.847043 108.234723 22.6543011 109.001932 23.4610215 109.388221 24.5715054 109.388221 25.9833333L109.388221 27.1400538 102.692725 27.1400538C102.722254 28.1147849 102.985328 28.8655914 103.484094 29.3916667 103.978297 29.9169355 104.680275 30.1774194 105.582242 30.1774194 106.173889 30.1774194 106.72715 30.1209677 107.240143 30.0086022 107.75099 29.8983871 108.301297 29.7096774 108.887576 29.4486559L108.887576 31.1876344C108.367334 31.4349462 107.841186 31.6123656 107.308059 31.7172043 106.774395 31.8201613 106.165836 31.8696237 105.481576 31.8696237M115.893928 21.4430108C116.325047 21.4430108 116.678855 21.4741935 116.958035 21.5362903L116.747844 23.527957C116.446115 23.4537634 116.129352 23.4169355 115.803463 23.4169355 114.949547 23.4169355 114.256965 23.6986559 113.727059 24.2561828 113.197959 24.813172 112.932201 25.5370968 112.932201 26.4287634L112.932201 31.6897849 110.798619 31.6897849 110.798619 21.6252688 112.47048 21.6252688 112.750465 23.4008065 112.860527 23.4008065C113.193395 22.7986559 113.626662 22.3236559 114.161936 21.972043 114.701238 21.6206989 115.277047 21.4430108 115.893928 21.4430108M125.18607 28.8236559C125.18607 29.8043011 124.828773 30.5599462 124.114447 31.0833333 123.397973 31.6067204 122.375744 31.8696237 121.041852 31.8696237 119.705008 31.8696237 118.630701 31.6674731 117.817857 31.2596774L117.817857 29.4147849C118.998467 29.958871 120.09774 30.2322581 121.1146 30.2322581 122.428895 30.2322581 123.084969 29.8336022 123.084969 29.0392473 123.084969 28.7860215 123.014906 28.5725806 122.870215 28.4032258 122.723645 28.2336022 122.484463 28.0586022 122.151594 27.8752688 121.817652 27.6924731 121.355662 27.488172 120.761867 27.2569892 119.604074 26.8080645 118.822906 26.3594086 118.413262 25.9112903 118.004961 25.4607527 117.799066 24.8803763 117.799066 24.1647849 117.799066 23.3026882 118.146967 22.6346774 118.84116 22.1561828 119.53401 21.6811828 120.475975 21.4430108 121.670277 21.4430108 122.851156 21.4430108 123.968951 21.6830645 125.02232 22.1612903L124.332422 23.7736559C123.247645 23.3239247 122.335209 23.1002688 121.59726 23.1002688 120.470338 23.1002688 119.907682 23.4193548 119.907682 24.0653226 119.907682 24.380914 120.055594 24.6451613 120.348734 24.863172 120.641336 25.0822581 121.283451 25.3836022 122.269709 25.7634409 123.100539 26.0873656 123.701582 26.3806452 124.079012 26.6456989 124.451342 26.9145161 124.731596 27.222043 124.913064 27.5701613 125.094799 27.9201613 125.18607 28.3379032 125.18607 28.8236559"/>
  </g>
</svg>
