<?xml version="1.0" encoding="UTF-8" standalone="no"?>
<svg width="109px" height="43px" viewBox="0 0 109 43" version="1.1" xmlns="http://www.w3.org/2000/svg" xmlns:xlink="http://www.w3.org/1999/xlink">
    <!-- Generator: Sketch 3.8.3 (29802) - http://www.bohemiancoding.com/sketch -->
    <title>mbo_logo_knockout</title>
    <desc>Created with Sketch.</desc>
    <defs></defs>
    <g id="Designs" stroke="none" stroke-width="1" fill="none" fill-rule="evenodd">
        <g id="Concept-1---Black-Motion" transform="translate(-250.000000, -18.000000)" fill="#FFFFFF">
            <g id="mbo_logo_knockout" transform="translate(250.000000, 18.000000)">
                <g id="text">
                    <g id="DRAFT_VisualDesign_Invoice">
                        <g id="Reimbursed-Line-Item">
                            <g id="Header-Nav">
                                <g id="MBO_logo_reverse_2014">
                                    <g id="text">
                                        <path d="M23.2107882,22.1913672 L21.7716118,22.1913672 L21.7716118,25.039135 L23.285642,25.039135 C23.9254182,25.039135 24.3975729,24.9172746 24.7024263,24.672916 C25.0069597,24.4288762 25.1595463,24.0553201 25.1595463,23.5516094 C25.1595463,22.644994 24.5098537,22.1913672 23.2107882,22.1913672" id="Fill-3"></path>
                                        <path d="M24.4887411,20.0610444 C24.7708823,19.8667697 24.9119529,19.5452115 24.9119529,19.0966889 C24.9119529,18.6781529 24.7584067,18.377968 24.4509943,18.1961346 C24.1439018,18.0139821 23.6576719,17.9233844 22.9932644,17.9233844 L21.7716118,17.9233844 L21.7716118,20.352616 L23.1205798,20.352616 C23.7501195,20.352616 24.20596,20.2550001 24.4887411,20.0610444" id="Fill-4"></path>
                                        <path d="M38.018407,25.6446086 C37.1188817,26.6163012 35.8294129,27.1027855 34.1506403,27.1027855 C32.4718677,27.1027855 31.182079,26.6163012 30.2828737,25.6446086 C29.3833485,24.673235 28.9339057,23.2775832 28.9339057,21.4586102 C28.9339057,19.6396373 29.3843081,18.2506847 30.2867123,17.2914332 C31.1881569,16.3325008 32.4817842,15.8523966 34.1656751,15.8523966 C35.8492459,15.8523966 37.1377551,16.3356909 38.0296031,17.3025985 C38.921451,18.269506 39.3673749,19.6597347 39.3673749,21.4736035 C39.3673749,23.2826873 38.9179322,24.673235 38.018407,25.6446086 L38.018407,25.6446086 L38.018407,25.6446086 Z M26.4899608,26.1154616 C25.7679734,26.6737223 24.7868767,26.9528527 23.5479503,26.9528527 L19.4476249,26.9528527 L19.4476249,16.024341 L22.8582716,16.024341 C24.4122878,16.024341 25.5405331,16.2447742 26.2426874,16.6859596 C26.9445218,17.1268261 27.2954389,17.8286395 27.2954389,18.790124 C27.2954389,19.4434485 27.1422126,19.9787408 26.8348001,20.3972769 C26.5277076,20.8158129 26.1188907,21.0675087 25.6093089,21.1520454 L25.6093089,21.2273307 C26.303466,21.3814108 26.8044108,21.6704303 27.1118233,22.0943895 C27.4192356,22.5180295 27.5731018,23.0807564 27.5731018,23.7835269 C27.5731018,24.7801019 27.2119482,25.5575199 26.4899608,26.1154616 L26.4899608,26.1154616 L26.4899608,26.1154616 Z M17.3881856,26.9528527 L15.2219036,26.9528527 L15.2219036,21.7801684 C15.2219036,21.5361287 15.2260621,21.2547653 15.2334196,20.9354402 C15.2410968,20.616434 15.2743653,19.9943721 15.3345042,18.6191367 L15.2670078,18.6191367 L12.4411165,26.9528527 L10.3125813,26.9528527 L7.67414455,18.6258358 L7.60664817,18.6258358 C7.70165492,20.3698423 7.74899836,21.286666 7.74899836,21.8698091 L7.74899836,26.9528527 L5.6726049,26.9528527 L5.6726049,16.024341 C5.6726049,16.024341 8.62293257,15.3758015 9.38298663,17.7881258 C10.0560311,19.9219578 11.4293106,24.3813443 11.4293106,24.3813443 L11.4744148,24.3813443 C11.4744148,24.3813443 12.8352187,20.1640833 13.611587,17.8886127 C14.4874406,15.3228464 17.3881856,16.024341 17.3881856,16.024341 L17.3881856,26.9528527 L17.3881856,26.9528527 L17.3881856,26.9528527 Z M0.329834357,7.79621597 L0.329834357,42.9277223 C13.2379578,36.0655816 33.1794602,35.1589662 43.5128045,35.1589662 L43.5128045,26.4606262 L43.5131243,16.4942369 L43.5131243,0.0271408384 C30.6053209,6.88928156 10.6631787,7.79621597 0.329834357,7.79621597 L0.329834357,7.79621597 L0.329834357,7.79621597 Z" id="Fill-5"></path>
                                        <path d="M32.0742468,18.7116485 C31.6043313,19.3321154 31.3698533,20.2527671 31.3698533,21.4736035 C31.3698533,22.694759 31.6020921,23.6141346 32.0668894,24.2320495 C32.5316868,24.8499643 33.2258439,25.1587623 34.1506403,25.1587623 C36.0047116,25.1587623 36.9314274,23.9305887 36.9314274,21.4736035 C36.9314274,19.0118332 36.0095099,17.7811076 34.1656751,17.7811076 C33.2408786,17.7811076 32.5438425,18.0911816 32.0742468,18.7116485 L32.0742468,18.7116485 Z" id="Fill-6"></path>
                                        <path d="M51.5803816,19.8492243 C50.8471981,19.8492243 50.3120254,20.0632775 49.9745435,20.4913836 C49.6367417,20.9194899 49.4678407,21.6034391 49.4678407,22.543231 L49.4678407,22.8175764 C49.4678407,23.8718915 49.6354621,24.6352732 49.970385,25.1080403 C50.3053078,25.5801694 50.8526363,25.8165529 51.6117307,25.8165529 C52.2505471,25.8165529 52.7428548,25.5559249 53.088334,25.0333929 C53.4338131,24.5114988 53.6065527,23.7675765 53.6065527,22.801307 C53.6065527,21.8302523 53.4350926,21.0959003 53.0921726,20.5969747 C52.7492525,20.0983682 52.2454289,19.8492243 51.5803816,19.8492243 M52.0282249,27.3200287 C50.9287696,27.3200287 50.0749883,26.9263751 49.4678407,26.1377921 L49.3581192,26.1377921 C49.4310537,26.8686351 49.4678407,27.3126915 49.4678407,27.4693236 L49.4678407,31.0166717 L47.6224065,31.0166717 L47.6224065,18.5020615 L49.1143645,18.5020615 C49.1562698,18.6641165 49.2426396,19.0501139 49.3734738,19.6610107 L49.4678407,19.6610107 C50.0436393,18.7840629 50.907657,18.3454295 52.0595739,18.3454295 C53.1433547,18.3454295 53.9875393,18.73685 54.5921277,19.52001 C55.1970361,20.3034891 55.4993303,21.4024652 55.4993303,22.8175764 C55.4993303,24.2323684 55.191598,25.3364486 54.5764533,26.1301359 C53.9613085,26.9238231 53.1120057,27.3200287 52.0282249,27.3200287" id="Fill-7"></path>
                                        <path d="M59.7880697,25.9106597 C60.4582352,25.9106597 60.9966069,25.7240411 61.401905,25.350804 C61.8081628,24.9775668 62.010652,24.4540777 62.010652,23.7803368 L62.010652,23.0287583 L60.8955221,23.0756523 C60.0263863,23.1069149 59.3946074,23.2520627 58.9989058,23.5104576 C58.6035242,23.7685336 58.4058333,24.1641011 58.4058333,24.6968414 C58.4058333,25.0831578 58.520993,25.3820665 58.7516323,25.5935676 C58.9822716,25.8050687 59.3277508,25.9106597 59.7880697,25.9106597 M62.5368678,27.1637157 L62.1680369,25.9575536 L62.1046991,25.9575536 C61.6862855,26.4851897 61.2643532,26.8440716 60.8405014,27.0345183 C60.4163299,27.2249649 59.8718804,27.3203477 59.2074728,27.3203477 C58.3536916,27.3203477 57.6876846,27.0909824 57.2084922,26.6312945 C56.7296198,26.1719257 56.4900237,25.5217912 56.4900237,24.6812101 C56.4900237,23.7883119 56.8223874,23.11489 57.4874347,22.6606253 C58.1518422,22.2063605 59.1649277,21.9584928 60.5266912,21.916384 L62.0263265,21.8694901 L62.0263265,21.4072503 C62.0263265,20.8540936 61.8967719,20.4403426 61.6376625,20.1663164 C61.3785532,19.8919712 60.9764538,19.7547985 60.4320043,19.7547985 C59.9870401,19.7547985 59.5603094,19.8201948 59.1518123,19.9506683 C58.743955,20.0814608 58.3508126,20.2355407 57.9739845,20.4129082 L57.3770733,19.0970079 C57.8485883,18.8516922 58.363928,18.6650736 58.924052,18.5371522 C59.4844959,18.4092307 60.0132709,18.3451105 60.5106968,18.3451105 C61.6152704,18.3451105 62.4495384,18.5853221 63.0119017,19.0657452 C63.5749047,19.5461686 63.8560863,20.300618 63.8560863,21.3294127 L63.8560863,27.1637157 L62.5368678,27.1637157" id="Fill-8"></path>
                                        <path d="M69.541137,18.3451105 C69.9131669,18.3451105 70.2192997,18.371588 70.4604954,18.4235859 L70.2794387,20.1385629 C70.0177702,20.0760377 69.7452256,20.044456 69.4627645,20.044456 C68.7247827,20.044456 68.126592,20.2849867 67.6681924,20.765091 C67.2097928,21.2458332 66.9810728,21.8694901 66.9810728,22.6373378 L66.9810728,27.1637157 L65.1353187,27.1637157 L65.1353187,18.5020615 L66.5808929,18.5020615 L66.8236879,20.0291437 L66.9180548,20.0291437 C67.206274,19.5123538 67.5818226,19.102112 68.0453405,18.7993751 C68.5085383,18.4969574 69.0075637,18.3451105 69.541137,18.3451105" id="Fill-9"></path>
                                        <path d="M75.6110132,25.8325032 C76.0607758,25.8325032 76.5111782,25.7623219 76.9615807,25.6206831 L76.9615807,27.0074027 C76.757492,27.0957675 76.494544,27.1704149 76.1724168,27.230388 C75.8506093,27.2906802 75.5166462,27.3203477 75.1711671,27.3203477 C73.4220191,27.3203477 72.5480849,26.4016101 72.5480849,24.5638158 L72.5480849,19.8961182 L71.3622598,19.8961182 L71.3622598,19.0813766 L72.6341347,18.4079546 L73.2627149,16.5752645 L74.4015164,16.5752645 L74.4015164,18.5020615 L76.8752108,18.5020615 L76.8752108,19.8961182 L74.4015164,19.8961182 L74.4015164,24.5322343 C74.4015164,24.9759717 74.5125176,25.303591 74.7354795,25.5150921 C74.9578018,25.7269122 75.2498595,25.8325032 75.6110132,25.8325032" id="Fill-10"></path>
                                        <path d="M86.0633559,27.1637157 L84.2099244,27.1637157 L84.2099244,21.8382275 C84.2099244,21.1702287 84.0752515,20.6713031 83.8055859,20.3424078 C83.5356004,20.0138314 83.1079099,19.8489053 82.5215551,19.8489053 C81.7410282,19.8489053 81.1706678,20.0792277 80.8091943,20.5385966 C80.4480407,20.9976463 80.2673039,21.7674082 80.2673039,22.8485199 L80.2673039,27.1637157 L78.4218696,27.1637157 L78.4218696,18.5017425 L79.8671239,18.5017425 L80.1262333,19.6374042 L80.2202804,19.6374042 C80.4822687,19.2249294 80.8536588,18.9065612 81.3354102,18.6819809 C81.8171616,18.4577197 82.3510548,18.3454295 82.9377295,18.3454295 C85.0214804,18.3454295 86.0633559,19.4026157 86.0633559,21.5169884 L86.0633559,27.1637157" id="Fill-11"></path>
                                        <path d="M91.175807,19.7394862 C90.5894522,19.7394862 90.1198565,19.9245098 89.7663802,20.2951949 C89.4129038,20.666518 89.2017777,21.2062764 89.1342813,21.916703 L93.0765819,21.916703 C93.0660256,21.2014913 92.8929662,20.6598189 92.5583632,20.2916858 C92.2231205,19.9232337 91.7621618,19.7394862 91.175807,19.7394862 M91.5139286,27.3203477 C90.1627215,27.3203477 89.106771,26.9279702 88.3451174,26.1416201 C87.583144,25.3559081 87.2018375,24.2741582 87.2018375,22.8954138 C87.2018375,21.4809407 87.5556337,20.3682473 88.2625864,19.5595668 C88.9692191,18.7499292 89.9403992,18.3454295 91.175807,18.3454295 C92.3229256,18.3454295 93.2282089,18.6925082 93.8932561,19.3873034 C94.5583034,20.0814608 94.890987,21.0372031 94.890987,22.2535735 L94.890987,23.2482346 L89.1029323,23.2482346 C89.1288433,24.0884967 89.3566036,24.7351221 89.7862132,25.1865157 C90.2148632,25.6382284 90.8200915,25.8637657 91.5999786,25.8637657 C92.113399,25.8637657 92.5909919,25.8155959 93.0337169,25.719256 C93.4758022,25.6222781 93.9511559,25.461818 94.4588182,25.2369187 L94.4588182,26.7333765 C94.0084159,26.9471105 93.5528953,27.0986385 93.0925763,27.1873221 C92.6316176,27.2763249 92.1054018,27.3203477 91.5139286,27.3203477" id="Fill-12"></path>
                                        <path d="M100.514939,18.3451105 C100.886649,18.3451105 101.192782,18.371588 101.433978,18.4235859 L101.252921,20.1385629 C100.991253,20.0760377 100.718708,20.044456 100.436567,20.044456 C99.6982649,20.044456 99.1000743,20.2849867 98.6419945,20.76541 C98.1835949,21.2458332 97.9545551,21.8694901 97.9545551,22.6373378 L97.9545551,27.1637157 L96.1091209,27.1637157 L96.1091209,18.5020615 L97.5543751,18.5020615 L97.7974901,20.0291437 L97.8915371,20.0291437 C98.1797562,19.5123538 98.5556248,19.102112 99.0188226,18.7993751 C99.4823405,18.4969574 99.9810461,18.3451105 100.514939,18.3451105" id="Fill-13"></path>
                                        <path d="M108.547009,24.6968414 C108.547009,25.5428456 108.237997,26.1917041 107.620293,26.6430977 C107.002589,27.0948104 106.117459,27.3203477 104.965862,27.3203477 C103.809147,27.3203477 102.879552,27.1458514 102.178037,26.7955827 L102.178037,25.2059751 C103.1988,25.6758712 104.149188,25.9106597 105.02856,25.9106597 C106.164802,25.9106597 106.732924,25.5686851 106.732924,24.8850549 C106.732924,24.6652598 106.669906,24.4827883 106.544509,24.3366835 C106.418793,24.1905787 106.211826,24.0390508 105.923927,23.8824187 C105.636027,23.7257867 105.235527,23.5484194 104.722427,23.3496785 C103.722457,22.9633621 103.045574,22.5770456 102.692417,22.1907292 C102.338941,21.8044128 102.162363,21.3032542 102.162363,20.6872534 C102.162363,19.9455642 102.461778,19.3700772 103.061568,18.9601542 C103.660718,18.5502314 104.476113,18.3451105 105.507752,18.3451105 C106.528515,18.3451105 107.494577,18.5515074 108.405618,18.9639824 L107.809027,20.3503829 C106.871435,19.9640665 106.083551,19.7707488 105.444734,19.7707488 C104.471315,19.7707488 103.984125,20.0476462 103.984125,20.6008027 C103.984125,20.8725959 104.111121,21.1019613 104.365112,21.289856 C104.619103,21.4777506 105.172829,21.7364646 106.025971,22.0653598 C106.74348,22.3422572 107.264258,22.5955481 107.588944,22.8252325 C107.91331,23.0549168 108.154506,23.3200109 108.311571,23.6201958 C108.468636,23.9203805 108.547009,24.2792623 108.547009,24.6968414" id="Fill-14"></path>
                                    </g>
                                </g>
                            </g>
                        </g>
                    </g>
                </g>
            </g>
        </g>
    </g>
</svg>