<?xml version="1.0" encoding="UTF-8" standalone="no"?>
<svg width="16px" height="16px" viewBox="0 0 16 16" version="1.1" xmlns="http://www.w3.org/2000/svg" xmlns:xlink="http://www.w3.org/1999/xlink" xmlns:sketch="http://www.bohemiancoding.com/sketch/ns">
    <!-- Generator: Sketch 3.4.1 (15681) - http://www.bohemiancoding.com/sketch -->
    <title>Save Icon Final</title>
    <desc>Created with Sketch.</desc>
    <defs></defs>
    <g id="Page-1" stroke="none" stroke-width="1" fill="none" fill-rule="evenodd" sketch:type="MSPage">
        <g id="Save-Icon-Final" sketch:type="MSArtboardGroup" fill="#FFFFFF">
            <path d="M1,1.99406028 L1,1.99406028 L1,14.0059397 C1,14.5539384 1.44579254,15 1.99406028,15 L14.0059397,15 C14.5539384,15 15,14.5542075 15,14.0059397 L15,1.99406028 C15,1.44606163 14.5542075,1 14.0059397,1 L1.99406028,1 C1.44606163,1 1,1.44579254 1,1.99406028 L1,1.99406028 Z M0,1.99406028 C0,0.892771196 0.894513756,0 1.99406028,0 L14.0059397,0 C15.1072288,0 16,0.894513756 16,1.99406028 L16,14.0059397 C16,15.1072288 15.1054862,16 14.0059397,16 L1.99406028,16 C0.892771196,16 0,15.1054862 0,14.0059397 L0,1.99406028 L0,1.99406028 Z" id="Shape" sketch:type="MSShapeGroup"></path>
            <path d="M2,3 L2,3 L3,2 L3,5 L2,4 L5,4 L4,5 L4,2 L5,3 L2,3 Z M2,2 L5,2 L5,5 L2,5 L2,2 L2,2 Z" id="Shape" sketch:type="MSShapeGroup"></path>
            <path d="M6,1 L6,1 L7,0 L7,5 L6,4 L14,4 L13,5 L13,0 L14,1 L6,1 Z M6,0 L14,0 L14,5 L6,5 L6,0 L6,0 Z" id="Shape" sketch:type="MSShapeGroup"></path>
            <path d="M3,10 L3,10 L4,9 L4,16 L3,15 L13,15 L12,16 L12,9 L13,10 L3,10 Z M3,9 L13,9 L13,16 L3,16 L3,9 L3,9 Z" id="Shape" sketch:type="MSShapeGroup"></path>
        </g>
    </g>
</svg>