<?xml version="1.0" encoding="UTF-8" standalone="no"?>
<svg width="16px" height="16px" viewBox="0 0 16 16" version="1.1" xmlns="http://www.w3.org/2000/svg" xmlns:xlink="http://www.w3.org/1999/xlink" xmlns:sketch="http://www.bohemiancoding.com/sketch/ns">
    <!-- Generator: Sketch 3.4.2 (15857) - http://www.bohemiancoding.com/sketch -->
    <title>Filter2</title>
    <desc>Created with Sketch.</desc>
    <defs></defs>
    <g id="Page-1" stroke="none" stroke-width="1" fill="none" fill-rule="evenodd" sketch:type="MSPage">
        <g id="Filter2" sketch:type="MSArtboardGroup">
            <g id="Group" sketch:type="MSLayerGroup" transform="translate(1.000000, 2.000000)">
                <path d="M0.5,12 L13.5,12 C13.7761424,12 14,11.7761424 14,11.5 C14,11.2238576 13.7761424,11 13.5,11 L0.5,11 C0.223857625,11 0,11.2238576 0,11.5 C0,11.7761424 0.223857625,12 0.5,12 L0.5,12 Z" id="Shape" fill="#FFFFFF" sketch:type="MSShapeGroup"></path>
                <path d="M0.5,2 L13.5,2 C13.7761424,2 14,1.77614237 14,1.5 C14,1.22385763 13.7761424,1 13.5,1 L0.5,1 C0.223857625,1 0,1.22385763 0,1.5 C0,1.77614237 0.223857625,2 0.5,2 L0.5,2 Z" id="Shape" fill="#FFFFFF" sketch:type="MSShapeGroup"></path>
                <g id="Oval1" transform="translate(9.000000, 0.000000)" sketch:type="MSShapeGroup">
                    <circle id="Oval-1" fill="#FFFFFF" cx="1.5" cy="1.5" r="1.5"></circle>
                    <circle id="Oval-1-Copy" fill="#979797" cx="1.5" cy="1.5" r="0.75"></circle>
                </g>
                <path d="M0.5,7 L13.5,7 C13.7761424,7 14,6.77614237 14,6.5 C14,6.22385763 13.7761424,6 13.5,6 L0.5,6 C0.223857625,6 0,6.22385763 0,6.5 C0,6.77614237 0.223857625,7 0.5,7 L0.5,7 Z" id="Shape" fill="#FFFFFF" sketch:type="MSShapeGroup"></path>
                <g id="Oval1-Copy" transform="translate(4.000000, 5.000000)" sketch:type="MSShapeGroup">
                    <circle id="Oval-1" fill="#FFFFFF" cx="1.5" cy="1.5" r="1.5"></circle>
                    <circle id="Oval-1-Copy" fill="#979797" cx="1.5" cy="1.5" r="0.75"></circle>
                </g>
                <g id="Oval2" transform="translate(9.000000, 10.000000)" sketch:type="MSShapeGroup">
                    <circle id="Oval-1" fill="#FFFFFF" cx="1.5" cy="1.5" r="1.5"></circle>
                    <circle id="Oval-1-Copy" fill="#979797" cx="1.5" cy="1.5" r="0.75"></circle>
                </g>
            </g>
        </g>
    </g>
</svg>