<?xml version="1.0" standalone="no"?>
<!DOCTYPE svg PUBLIC "-//W3C//DTD SVG 20010904//EN"
 "http://www.w3.org/TR/2001/REC-SVG-20010904/DTD/svg10.dtd">
<svg version="1.0" xmlns="http://www.w3.org/2000/svg"
 width="196.000000pt" height="196.000000pt" viewBox="0 0 196.000000 196.000000"
 preserveAspectRatio="xMidYMid meet">
<metadata>
Created by potrace 1.11, written by Peter Selinger 2001-2013
</metadata>
<g transform="translate(0.000000,196.000000) scale(0.100000,-0.100000)"
fill="#000000" stroke="none">
<path d="M1906 1930 c-91 -45 -345 -141 -412 -154 -10 -3 -64 -16 -119 -30
-55 -14 -149 -34 -210 -45 -144 -27 -154 -28 -260 -41 -49 -6 -101 -13 -115
-15 -14 -2 -59 -7 -100 -10 -41 -4 -95 -8 -120 -10 -58 -5 -269 -15 -430 -20
-69 -2 -128 -4 -132 -4 -8 -1 -12 -1591 -4 -1591 2 0 42 17 88 39 73 34 185
79 213 86 6 1 17 5 25 8 116 47 470 126 680 152 30 4 63 9 74 11 10 2 42 6 70
8 28 3 78 8 111 11 33 3 78 8 100 10 79 8 332 18 462 19 l133 1 0 798 c0 438
-3 797 -7 797 -5 -1 -26 -10 -47 -20z m-252 -720 c47 -22 81 -62 101 -119 17
-50 16 -186 -3 -231 -34 -84 -113 -132 -221 -132 -118 -1 -189 50 -220 157 -7
26 -6 173 2 202 11 41 59 102 95 122 62 33 179 34 246 1z m-1279 -10 c21 -19
82 -180 101 -265 1 -5 9 -28 17 -50 l14 -39 51 159 c51 161 71 198 119 216 35
13 90 11 95 -3 2 -7 4 -119 4 -248 l-1 -235 -30 -2 c-17 -2 -39 -1 -51 2 -19
4 -20 10 -18 187 0 107 -2 175 -7 163 -5 -11 -34 -95 -65 -187 l-56 -166 -47
0 -48 -1 -38 122 c-22 67 -39 124 -40 127 -1 3 -5 19 -10 35 -4 17 -10 35 -14
40 -3 6 -6 16 -7 23 -8 49 -11 -1 -10 -160 l1 -183 -45 0 -45 0 -1 235 c0 129
2 241 4 249 8 22 98 9 127 -19z m782 6 c45 -23 67 -59 65 -108 -2 -48 -22 -84
-52 -93 -19 -6 -18 -8 12 -29 66 -44 70 -147 7 -200 -41 -35 -86 -44 -211 -43
l-108 0 0 250 0 249 128 -4 c93 -3 136 -9 159 -22z"/>
<path d="M1473 1134 c-41 -20 -63 -75 -63 -155 0 -109 38 -161 118 -163 90 -2
132 51 132 164 0 67 -16 115 -48 144 -29 25 -99 31 -139 10z"/>
<path d="M970 1085 l0 -57 61 4 c69 5 91 22 83 66 -3 15 -7 29 -10 31 -3 3
-34 7 -69 9 l-65 4 0 -57z"/>
<path d="M978 944 c-5 -4 -8 -34 -8 -66 l0 -58 58 0 c67 0 89 13 98 55 8 43
-22 67 -89 73 -28 2 -55 0 -59 -4z"/>
</g>
</svg>
